<svg xmlns="http://www.w3.org/2000/svg" viewBox="0 0 552.8875 660" width="552.8875" height="660" style="--bg:#FFFFFF;--fg:#1b2a4a;--line:#5c7caa;--accent:#5c7caa;--surface:#dceefb;--border:#4a86c8;--muted:#6c84a3;background:var(--bg)">
<style>
  @import url('https://fonts.googleapis.com/css2?family=Inter:wght@400;500;600;700&amp;display=swap');
  text { font-family: 'Inter', system-ui, sans-serif; }
  svg {
    /* Derived from --bg and --fg (overridable via --line, --accent, etc.) */
    --_text:          var(--fg);
    --_text-sec:      var(--muted, color-mix(in srgb, var(--fg) 60%, var(--bg)));
    --_text-muted:    var(--muted, color-mix(in srgb, var(--fg) 40%, var(--bg)));
    --_text-faint:    color-mix(in srgb, var(--fg) 25%, var(--bg));
    --_line:          var(--line, color-mix(in srgb, var(--fg) 30%, var(--bg)));
    --_arrow:         var(--accent, color-mix(in srgb, var(--fg) 50%, var(--bg)));
    --_node-fill:     var(--surface, color-mix(in srgb, var(--fg) 3%, var(--bg)));
    --_node-stroke:   var(--border, color-mix(in srgb, var(--fg) 20%, var(--bg)));
    --_group-fill:    var(--bg);
    --_group-hdr:     color-mix(in srgb, var(--fg) 5%, var(--bg));
    --_inner-stroke:  color-mix(in srgb, var(--fg) 12%, var(--bg));
    --_key-badge:     color-mix(in srgb, var(--fg) 10%, var(--bg));
  }
</style>
<defs>
  <marker id="arrowhead" markerWidth="8" markerHeight="4.8" refX="8" refY="2.4" orient="auto">
    <polygon points="0 0, 8 2.4, 0 4.8" fill="var(--_arrow)" />
  </marker>
  <marker id="arrowhead-start" markerWidth="8" markerHeight="4.8" refX="0" refY="2.4" orient="auto-start-reverse">
    <polygon points="8 0, 0 2.4, 8 4.8" fill="var(--_arrow)" />
  </marker>
</defs>
<rect x="40" y="40" width="183.25" height="580" rx="0" ry="0" fill="var(--_group-fill)" stroke="var(--_node-stroke)" stroke-width="1" />
<rect x="40" y="40" width="183.25" height="28" rx="0" ry="0" fill="var(--_group-hdr)" stroke="var(--_node-stroke)" stroke-width="1" />
<text x="52" y="54" dy="0.35em" font-size="12" font-weight="600" fill="var(--_text-sec)">Model</text>
<rect x="243.25000000000003" y="40" width="269.6375" height="424" rx="0" ry="0" fill="var(--_group-fill)" stroke="var(--_node-stroke)" stroke-width="1" />
<rect x="243.25000000000003" y="40" width="269.6375" height="28" rx="0" ry="0" fill="var(--_group-hdr)" stroke="var(--_node-stroke)" stroke-width="1" />
<text x="255.25000000000003" y="54" dy="0.35em" font-size="12" font-weight="600" fill="var(--_text-sec)">Agent</text>
<polyline points="131.625,132 131.625,252" fill="none" stroke="var(--_line)" stroke-width="0.75" marker-end="url(#arrowhead)" />
<polyline points="131.625,288 131.625,408" fill="none" stroke="var(--_line)" stroke-width="0.75" marker-end="url(#arrowhead)" />
<polyline points="131.625,444 131.625,564" fill="none" stroke="var(--_line)" stroke-width="0.75" marker-end="url(#arrowhead)" />
<polyline points="366.45,132 366.45,152 418.4125,152 418.4125,252" fill="none" stroke="var(--_line)" stroke-width="0.75" marker-end="url(#arrowhead)" />
<polyline points="418.4125,288 418.4125,308 356.45,308 356.45,426 341.93749999999994,426" fill="none" stroke="var(--_line)" stroke-width="0.75" marker-end="url(#arrowhead)" />
<polyline points="304.48749999999995,408 304.48749999999995,388 284.7625,388 284.7625,114 325.42499999999995,114" fill="none" stroke="var(--_line)" stroke-width="0.75" marker-end="url(#arrowhead)" />
<polyline points="418.4125,288 418.4125,308 428.4125,308 428.4125,408" fill="none" stroke="var(--_line)" stroke-width="0.75" marker-end="url(#arrowhead)" />
<rect x="101.325" y="96" width="60.6" height="36" rx="0" ry="0" fill="var(--_node-fill)" stroke="var(--_node-stroke)" stroke-width="0.75" />
<rect x="97.75" y="252" width="67.75" height="36" rx="0" ry="0" fill="var(--_node-fill)" stroke="var(--_node-stroke)" stroke-width="0.75" />
<rect x="79.875" y="408" width="103.5" height="36" rx="0" ry="0" fill="var(--_node-fill)" stroke="var(--_node-stroke)" stroke-width="0.75" />
<rect x="62" y="564" width="139.25" height="36" rx="0" ry="0" fill="var(--_node-fill)" stroke="var(--_node-stroke)" stroke-width="0.75" />
<rect x="325.42499999999995" y="96" width="82.05000000000001" height="36" rx="0" ry="0" fill="var(--_node-fill)" stroke="var(--_node-stroke)" stroke-width="0.75" />
<rect x="384.5375" y="252" width="67.75" height="36" rx="0" ry="0" fill="var(--_node-fill)" stroke="var(--_node-stroke)" stroke-width="0.75" />
<rect x="267.03749999999997" y="408" width="74.9" height="36" rx="0" ry="0" fill="var(--_node-fill)" stroke="var(--_node-stroke)" stroke-width="0.75" />
<rect x="365.9375" y="408" width="124.95" height="36" rx="0" ry="0" fill="var(--_node-fill)" stroke="var(--_node-stroke)" stroke-width="0.75" />
<text x="131.625" y="114" text-anchor="middle" dy="0.35em" font-size="13" font-weight="500" fill="var(--_text)">Ulaz</text>
<text x="131.625" y="270" text-anchor="middle" dy="0.35em" font-size="13" font-weight="500" fill="var(--_text)">Model</text>
<text x="131.625" y="426" text-anchor="middle" dy="0.35em" font-size="13" font-weight="500" fill="var(--_text)">Predikcija</text>
<text x="131.625" y="582" text-anchor="middle" dy="0.35em" font-size="13" font-weight="500" fill="var(--_text)">Odluka o akciji</text>
<text x="366.44999999999993" y="114" text-anchor="middle" dy="0.35em" font-size="13" font-weight="500" fill="var(--_text)">Okolina</text>
<text x="418.4125" y="270" text-anchor="middle" dy="0.35em" font-size="13" font-weight="500" fill="var(--_text)">Agent</text>
<text x="304.48749999999995" y="426" text-anchor="middle" dy="0.35em" font-size="13" font-weight="500" fill="var(--_text)">Akcija</text>
<text x="428.4125" y="426" text-anchor="middle" dy="0.35em" font-size="13" font-weight="500" fill="var(--_text)">Cilj i uspjeh</text>
</svg>