<svg xmlns="http://www.w3.org/2000/svg" viewBox="0 0 924.35 512" width="924.35" height="512" style="--bg:#FFFFFF;--fg:#1b2a4a;--line:#5c7caa;--accent:#5c7caa;--surface:#dceefb;--border:#4a86c8;--muted:#6c84a3;background:var(--bg)">
<style>
  @import url('https://fonts.googleapis.com/css2?family=Inter:wght@400;500;600;700&amp;display=swap');
  text { font-family: 'Inter', system-ui, sans-serif; }
  svg {
    /* Derived from --bg and --fg (overridable via --line, --accent, etc.) */
    --_text:          var(--fg);
    --_text-sec:      var(--muted, color-mix(in srgb, var(--fg) 60%, var(--bg)));
    --_text-muted:    var(--muted, color-mix(in srgb, var(--fg) 40%, var(--bg)));
    --_text-faint:    color-mix(in srgb, var(--fg) 25%, var(--bg));
    --_line:          var(--line, color-mix(in srgb, var(--fg) 30%, var(--bg)));
    --_arrow:         var(--accent, color-mix(in srgb, var(--fg) 50%, var(--bg)));
    --_node-fill:     var(--surface, color-mix(in srgb, var(--fg) 3%, var(--bg)));
    --_node-stroke:   var(--border, color-mix(in srgb, var(--fg) 20%, var(--bg)));
    --_group-fill:    var(--bg);
    --_group-hdr:     color-mix(in srgb, var(--fg) 5%, var(--bg));
    --_inner-stroke:  color-mix(in srgb, var(--fg) 12%, var(--bg));
    --_key-badge:     color-mix(in srgb, var(--fg) 10%, var(--bg));
  }
</style>
<defs>
  <marker id="arrowhead" markerWidth="8" markerHeight="4.8" refX="8" refY="2.4" orient="auto">
    <polygon points="0 0, 8 2.4, 0 4.8" fill="var(--_arrow)" />
  </marker>
  <marker id="arrowhead-start" markerWidth="8" markerHeight="4.8" refX="0" refY="2.4" orient="auto-start-reverse">
    <polygon points="8 0, 0 2.4, 8 4.8" fill="var(--_arrow)" />
  </marker>
</defs>
<rect x="251.42499999999998" y="40" width="421.50000000000006" height="156" rx="0" ry="0" fill="var(--_group-fill)" stroke="var(--_node-stroke)" stroke-width="1" />
<rect x="251.42499999999998" y="40" width="421.50000000000006" height="28" rx="0" ry="0" fill="var(--_group-hdr)" stroke="var(--_node-stroke)" stroke-width="1" />
<text x="263.42499999999995" y="54" dy="0.35em" font-size="12" font-weight="600" fill="var(--_text-sec)">&quot;Ulazni elementi&quot;</text>
<rect x="188.27500000000003" y="200" width="547.8" height="172" rx="0" ry="0" fill="var(--_group-fill)" stroke="var(--_node-stroke)" stroke-width="1" />
<rect x="188.27500000000003" y="200" width="547.8" height="28" rx="0" ry="0" fill="var(--_group-hdr)" stroke="var(--_node-stroke)" stroke-width="1" />
<text x="200.27500000000003" y="214" dy="0.35em" font-size="12" font-weight="600" fill="var(--_text-sec)">&quot;Gutenbergova sinteza&quot;</text>
<rect x="40" y="376" width="844.35" height="96" rx="0" ry="0" fill="var(--_group-fill)" stroke="var(--_node-stroke)" stroke-width="1" />
<rect x="40" y="376" width="844.35" height="28" rx="0" ry="0" fill="var(--_group-hdr)" stroke="var(--_node-stroke)" stroke-width="1" />
<text x="52" y="390" dy="0.35em" font-size="12" font-weight="600" fill="var(--_text-sec)">&quot;Proces i posljedice&quot;</text>
<polyline points="462.175,196 462.175,236" fill="none" stroke="var(--_line)" stroke-width="0.75" marker-end="url(#arrowhead)" />
<polyline points="462.175,372 462.175,412" fill="none" stroke="var(--_line)" stroke-width="0.75" marker-end="url(#arrowhead)" />
<polyline points="476.475,284 476.475,304 295.35,304 295.35,324" fill="none" stroke="var(--_line)" stroke-width="0.75" marker-end="url(#arrowhead)" />
<polyline points="476.475,284 476.475,324" fill="none" stroke="var(--_line)" stroke-width="0.75" marker-end="url(#arrowhead)" />
<polyline points="476.475,284 476.475,304 643.3000000000001,304 643.3000000000001,324" fill="none" stroke="var(--_line)" stroke-width="0.75" marker-end="url(#arrowhead)" />
<polyline points="273.9,442 313.9,442" fill="none" stroke="var(--_line)" stroke-width="0.75" marker-end="url(#arrowhead)" />
<polyline points="503.19999999999993,442 543.1999999999999,442" fill="none" stroke="var(--_line)" stroke-width="0.75" marker-end="url(#arrowhead)" />
<rect x="385.4" y="88" width="153.55" height="36" rx="0" ry="0" fill="#ffffff" stroke="#333" stroke-width="2px" />
<rect x="267.42499999999995" y="148" width="389.50000000000006" height="36" rx="0" ry="0" fill="#ffffff" stroke="#333" stroke-width="2px" />
<rect x="406.85" y="248" width="139.25" height="36" rx="0" ry="0" fill="#ffffff" stroke="#333" stroke-width="2px" />
<rect x="204.27500000000003" y="324" width="182.15" height="36" rx="0" ry="0" fill="#ffffff" stroke="#333" stroke-width="2px" />
<rect x="410.425" y="324" width="132.10000000000002" height="36" rx="0" ry="0" fill="#ffffff" stroke="#333" stroke-width="2px" />
<rect x="566.5250000000001" y="324" width="153.55" height="36" rx="0" ry="0" fill="#ffffff" stroke="#333" stroke-width="2px" />
<rect x="56" y="424" width="217.9" height="36" rx="0" ry="0" fill="#ffffff" stroke="#333" stroke-width="2px" />
<rect x="313.9" y="424" width="189.3" height="36" rx="0" ry="0" fill="#ffffff" stroke="#333" stroke-width="2px" />
<rect x="543.1999999999999" y="424" width="325.15000000000003" height="36" rx="0" ry="0" fill="#ffffff" stroke="#333" stroke-width="2px" />
<text x="462.17499999999995" y="106" text-anchor="middle" dy="0.35em" font-size="13" font-weight="500" fill="var(--_text)">Rukopis ili ideja</text>
<text x="462.17499999999995" y="166" text-anchor="middle" dy="0.35em" font-size="13" font-weight="500" fill="var(--_text)">Tehnološki preduvjeti (vijčana preša, metalurgija)</text>
<text x="476.475" y="266" text-anchor="middle" dy="0.35em" font-size="13" font-weight="500" fill="var(--_text)">Tiskarski stroj</text>
<text x="295.35" y="342" text-anchor="middle" dy="0.35em" font-size="13" font-weight="500" fill="var(--_text)">Pomična metalna slova</text>
<text x="476.475" y="342" text-anchor="middle" dy="0.35em" font-size="13" font-weight="500" fill="var(--_text)">Preša za tisak</text>
<text x="643.3000000000001" y="342" text-anchor="middle" dy="0.35em" font-size="13" font-weight="500" fill="var(--_text)">Boja na bazi ulja</text>
<text x="164.95" y="442" text-anchor="middle" dy="0.35em" font-size="13" font-weight="500" fill="var(--_text)">Masovna proizvodnja knjiga</text>
<text x="408.54999999999995" y="442" text-anchor="middle" dy="0.35em" font-size="13" font-weight="500" fill="var(--_text)">Širenje znanja i ideja</text>
<text x="705.775" y="442" text-anchor="middle" dy="0.35em" font-size="13" font-weight="500" fill="var(--_text)">Revolucija u religiji, znanosti i kulturi</text>
</svg>