<svg xmlns="http://www.w3.org/2000/svg" viewBox="0 0 964.6850000000001 782" width="964.6850000000001" height="782" style="--bg:#FFFFFF;--fg:#1b2a4a;--line:#5c7caa;--accent:#5c7caa;--surface:#dceefb;--border:#4a86c8;--muted:#6c84a3;background:var(--bg)">
<style>
  @import url('https://fonts.googleapis.com/css2?family=Inter:wght@400;500;600;700&amp;display=swap');
  text { font-family: 'Inter', system-ui, sans-serif; }
  svg {
    /* Derived from --bg and --fg (overridable via --line, --accent, etc.) */
    --_text:          var(--fg);
    --_text-sec:      var(--muted, color-mix(in srgb, var(--fg) 60%, var(--bg)));
    --_text-muted:    var(--muted, color-mix(in srgb, var(--fg) 40%, var(--bg)));
    --_text-faint:    color-mix(in srgb, var(--fg) 25%, var(--bg));
    --_line:          var(--line, color-mix(in srgb, var(--fg) 30%, var(--bg)));
    --_arrow:         var(--accent, color-mix(in srgb, var(--fg) 50%, var(--bg)));
    --_node-fill:     var(--surface, color-mix(in srgb, var(--fg) 3%, var(--bg)));
    --_node-stroke:   var(--border, color-mix(in srgb, var(--fg) 20%, var(--bg)));
    --_group-fill:    var(--bg);
    --_group-hdr:     color-mix(in srgb, var(--fg) 5%, var(--bg));
    --_inner-stroke:  color-mix(in srgb, var(--fg) 12%, var(--bg));
    --_key-badge:     color-mix(in srgb, var(--fg) 10%, var(--bg));
  }
</style>
<defs>
  <marker id="arrowhead" markerWidth="8" markerHeight="4.8" refX="8" refY="2.4" orient="auto">
    <polygon points="0 0, 8 2.4, 0 4.8" fill="var(--_arrow)" />
  </marker>
  <marker id="arrowhead-start" markerWidth="8" markerHeight="4.8" refX="0" refY="2.4" orient="auto-start-reverse">
    <polygon points="8 0, 0 2.4, 8 4.8" fill="var(--_arrow)" />
  </marker>
</defs>
<rect x="421.18000000000006" y="213" width="266.885" height="112" rx="0" ry="0" fill="var(--_group-fill)" stroke="var(--_node-stroke)" stroke-width="1" />
<rect x="421.18000000000006" y="213" width="266.885" height="28" rx="0" ry="0" fill="var(--_group-hdr)" stroke="var(--_node-stroke)" stroke-width="1" />
<text x="433.18000000000006" y="227" dy="0.35em" font-size="12" font-weight="600" fill="var(--_text-sec)">&quot;Klijentska Aplikacija&quot;</text>
<rect x="73.44750000000005" y="40" width="614.6175000000001" height="112" rx="0" ry="0" fill="var(--_group-fill)" stroke="var(--_node-stroke)" stroke-width="1" />
<rect x="73.44750000000005" y="40" width="614.6175000000001" height="28" rx="0" ry="0" fill="var(--_group-hdr)" stroke="var(--_node-stroke)" stroke-width="1" />
<text x="85.44750000000005" y="54" dy="0.35em" font-size="12" font-weight="600" fill="var(--_text-sec)">&quot;API Poslužitelj&quot;</text>
<rect x="42.272500000000036" y="213" width="294.77" height="369" rx="0" ry="0" fill="var(--_group-fill)" stroke="var(--_node-stroke)" stroke-width="1" />
<rect x="42.272500000000036" y="213" width="294.77" height="28" rx="0" ry="0" fill="var(--_group-hdr)" stroke="var(--_node-stroke)" stroke-width="1" />
<text x="54.272500000000036" y="227" dy="0.35em" font-size="12" font-weight="600" fill="var(--_text-sec)">&quot;Veliki Jezični Model&quot;</text>
<rect x="379.26000000000005" y="406" width="342.85" height="156" rx="0" ry="0" fill="var(--_group-fill)" stroke="var(--_node-stroke)" stroke-width="1" />
<rect x="379.26000000000005" y="406" width="342.85" height="28" rx="0" ry="0" fill="var(--_group-hdr)" stroke="var(--_node-stroke)" stroke-width="1" />
<text x="391.26000000000005" y="420" dy="0.35em" font-size="12" font-weight="600" fill="var(--_text-sec)">&quot;Struktura HTTP Zahtjeva&quot;</text>
<rect x="176.68500000000006" y="646" width="748" height="96" rx="0" ry="0" fill="var(--_group-fill)" stroke="var(--_node-stroke)" stroke-width="1" />
<rect x="176.68500000000006" y="646" width="748" height="28" rx="0" ry="0" fill="var(--_group-hdr)" stroke="var(--_node-stroke)" stroke-width="1" />
<text x="188.68500000000006" y="660" dy="0.35em" font-size="12" font-weight="600" fill="var(--_text-sec)">&quot;Struktura JSON Tijela&quot;</text>
<polyline points="550.6850000000001,269 550.6850000000001,249 646.5525,249 646.5525,114 424.88,114" fill="none" stroke="var(--_line)" stroke-width="0.75" marker-end="url(#arrowhead)" />
<polyline points="365.98,132 365.98,152 118.36,152 118.36,287 135.75750000000002,287" fill="none" stroke="var(--_line)" stroke-width="0.75" marker-end="url(#arrowhead)" />
<polyline points="194.65750000000003,269 194.65750000000003,249 280.78000000000003,249 280.78000000000003,114 307.08000000000004,114" fill="none" stroke="var(--_line)" stroke-width="0.75" marker-end="url(#arrowhead)" />
<polyline points="365.98,132 365.98,152 472.69250000000005,152 472.69250000000005,287 509.6600000000001,287" fill="none" stroke="var(--_line)" stroke-width="0.75" marker-end="url(#arrowhead)" />
<polyline points="550.6850000000001,305 550.6850000000001,532" fill="none" stroke="var(--_line)" stroke-width="0.75" marker-end="url(#arrowhead)" />
<polyline points="550.6850000000001,562 550.6850000000001,682" fill="none" stroke="var(--_line)" stroke-width="0.75" />
<polyline points="194.65750000000003,305 194.65750000000003,484" fill="none" stroke="var(--_line)" stroke-width="0.75" marker-end="url(#arrowhead)" />
<rect x="558.4725" y="187" width="176.16" height="27" rx="4" ry="4" fill="var(--bg)" stroke="var(--_inner-stroke)" stroke-width="0.5" />
<text x="646.5525" y="200.5" text-anchor="middle" dy="0.35em" font-size="11" font-weight="400" fill="var(--_text-muted)">1. Slanje HTTP POST Zahtjeva</text>
<rect x="36" y="187" width="164.72" height="27" rx="4" ry="4" fill="var(--bg)" stroke="var(--_inner-stroke)" stroke-width="0.5" />
<text x="118.36" y="200.5" text-anchor="middle" dy="0.35em" font-size="11" font-weight="400" fill="var(--_text-muted)">2. Prosljeđivanje podataka</text>
<rect x="212.72000000000003" y="187" width="136.12" height="27" rx="4" ry="4" fill="var(--bg)" stroke="var(--_inner-stroke)" stroke-width="0.5" />
<text x="280.78000000000003" y="200.5" text-anchor="middle" dy="0.35em" font-size="11" font-weight="400" fill="var(--_text-muted)">3. Vraćanje rezultata</text>
<rect x="398.9125" y="187" width="147.56" height="27" rx="4" ry="4" fill="var(--bg)" stroke="var(--_inner-stroke)" stroke-width="0.5" />
<text x="472.69250000000005" y="200.5" text-anchor="middle" dy="0.35em" font-size="11" font-weight="400" fill="var(--_text-muted)">4. Slanje HTTP Odgovora</text>
<rect x="525.5250000000001" y="360" width="50.32" height="27" rx="4" ry="4" fill="var(--bg)" stroke="var(--_inner-stroke)" stroke-width="0.5" />
<text x="550.6850000000001" y="373.5" text-anchor="middle" dy="0.35em" font-size="11" font-weight="400" fill="var(--_text-muted)">Sadrži</text>
<rect x="509.6600000000001" y="269" width="82.05000000000001" height="36" rx="0" ry="0" fill="var(--_node-fill)" stroke="var(--_node-stroke)" stroke-width="0.75" />
<rect x="307.08000000000004" y="96" width="117.80000000000001" height="36" rx="0" ry="0" fill="var(--_node-fill)" stroke="var(--_node-stroke)" stroke-width="0.75" />
<rect x="135.75750000000002" y="269" width="117.80000000000001" height="36" rx="0" ry="0" fill="var(--_node-fill)" stroke="var(--_node-stroke)" stroke-width="0.75" />
<rect x="114.30750000000002" y="484" width="160.70000000000002" height="36" rx="0" ry="0" fill="var(--_node-fill)" stroke="var(--_node-stroke)" stroke-width="0.75" />
<rect x="395.26000000000005" y="454" width="310.85" height="36" rx="0" ry="0" fill="var(--_node-fill)" stroke="var(--_node-stroke)" stroke-width="0.75" />
<rect x="488.21000000000004" y="514" width="124.95" height="36" rx="0" ry="0" fill="var(--_node-fill)" stroke="var(--_node-stroke)" stroke-width="0.75" />
<rect x="192.68500000000006" y="694" width="175" height="36" rx="0" ry="0" fill="var(--_node-fill)" stroke="var(--_node-stroke)" stroke-width="0.75" />
<rect x="391.68500000000006" y="694" width="217.9" height="36" rx="0" ry="0" fill="var(--_node-fill)" stroke="var(--_node-stroke)" stroke-width="0.75" />
<rect x="633.585" y="694" width="275.1" height="36" rx="0" ry="0" fill="var(--_node-fill)" stroke="var(--_node-stroke)" stroke-width="0.75" />
<text x="550.6850000000001" y="287" text-anchor="middle" dy="0.35em" font-size="13" font-weight="500" fill="var(--_text)">Klijent</text>
<text x="365.98" y="114" text-anchor="middle" dy="0.35em" font-size="13" font-weight="500" fill="var(--_text)">API Endpoint</text>
<text x="194.65750000000003" y="287" text-anchor="middle" dy="0.35em" font-size="13" font-weight="500" fill="var(--_text)">LLM Procesor</text>
<text x="194.65750000000003" y="502" text-anchor="middle" dy="0.35em" font-size="13" font-weight="500" fill="var(--_text)">Generirani Odgovor</text>
<text x="550.6850000000001" y="472" text-anchor="middle" dy="0.35em" font-size="13" font-weight="500" fill="var(--_text)">Zaglavlje (Authorization, Content-Type)</text>
<text x="550.6850000000001" y="532" text-anchor="middle" dy="0.35em" font-size="13" font-weight="500" fill="var(--_text)">Tijelo (JSON)</text>
<text x="280.18500000000006" y="712" text-anchor="middle" dy="0.35em" font-size="13" font-weight="500" fill="var(--_text)">Model: &quot;gpt-4-turbo&quot;</text>
<text x="500.63500000000005" y="712" text-anchor="middle" dy="0.35em" font-size="13" font-weight="500" fill="var(--_text)">Messages: [{role, content}</text>
<text x="771.135" y="712" text-anchor="middle" dy="0.35em" font-size="13" font-weight="500" fill="var(--_text)">Parametri: temperature, max_tokens</text>
</svg>