<svg xmlns="http://www.w3.org/2000/svg" viewBox="0 0 984.2 504" width="984.2" height="504" style="--bg:#FFFFFF;--fg:#1b2a4a;--line:#5c7caa;--accent:#5c7caa;--surface:#dceefb;--border:#4a86c8;--muted:#6c84a3;background:var(--bg)">
<style>
  @import url('https://fonts.googleapis.com/css2?family=Inter:wght@400;500;600;700&amp;display=swap');
  text { font-family: 'Inter', system-ui, sans-serif; }
  svg {
    /* Derived from --bg and --fg (overridable via --line, --accent, etc.) */
    --_text:          var(--fg);
    --_text-sec:      var(--muted, color-mix(in srgb, var(--fg) 60%, var(--bg)));
    --_text-muted:    var(--muted, color-mix(in srgb, var(--fg) 40%, var(--bg)));
    --_text-faint:    color-mix(in srgb, var(--fg) 25%, var(--bg));
    --_line:          var(--line, color-mix(in srgb, var(--fg) 30%, var(--bg)));
    --_arrow:         var(--accent, color-mix(in srgb, var(--fg) 50%, var(--bg)));
    --_node-fill:     var(--surface, color-mix(in srgb, var(--fg) 3%, var(--bg)));
    --_node-stroke:   var(--border, color-mix(in srgb, var(--fg) 20%, var(--bg)));
    --_group-fill:    var(--bg);
    --_group-hdr:     color-mix(in srgb, var(--fg) 5%, var(--bg));
    --_inner-stroke:  color-mix(in srgb, var(--fg) 12%, var(--bg));
    --_key-badge:     color-mix(in srgb, var(--fg) 10%, var(--bg));
  }
</style>
<defs>
  <marker id="arrowhead" markerWidth="8" markerHeight="4.8" refX="8" refY="2.4" orient="auto">
    <polygon points="0 0, 8 2.4, 0 4.8" fill="var(--_arrow)" />
  </marker>
  <marker id="arrowhead-start" markerWidth="8" markerHeight="4.8" refX="0" refY="2.4" orient="auto-start-reverse">
    <polygon points="8 0, 0 2.4, 8 4.8" fill="var(--_arrow)" />
  </marker>
</defs>
<rect x="236.22500000000008" y="40" width="482.0875" height="112" rx="0" ry="0" fill="var(--_group-fill)" stroke="var(--_node-stroke)" stroke-width="1" />
<rect x="236.22500000000008" y="40" width="482.0875" height="28" rx="0" ry="0" fill="var(--_group-hdr)" stroke="var(--_node-stroke)" stroke-width="1" />
<text x="248.22500000000008" y="54" dy="0.35em" font-size="12" font-weight="600" fill="var(--_text-sec)">Pokretači</text>
<rect x="154" y="196" width="673.6875" height="112" rx="0" ry="0" fill="var(--_group-fill)" stroke="var(--_node-stroke)" stroke-width="1" />
<rect x="154" y="196" width="673.6875" height="28" rx="0" ry="0" fill="var(--_group-hdr)" stroke="var(--_node-stroke)" stroke-width="1" />
<text x="166" y="210" dy="0.35em" font-size="12" font-weight="600" fill="var(--_text-sec)">Područja Transformacije</text>
<rect x="40" y="352" width="904.2" height="112" rx="0" ry="0" fill="var(--_group-fill)" stroke="var(--_node-stroke)" stroke-width="1" />
<rect x="40" y="352" width="904.2" height="28" rx="0" ry="0" fill="var(--_group-hdr)" stroke="var(--_node-stroke)" stroke-width="1" />
<text x="52" y="366" dy="0.35em" font-size="12" font-weight="600" fill="var(--_text-sec)">Ishodi</text>
<polyline points="397.96250000000003,132 397.96250000000003,152 276.225,152 276.225,270 202.3,270" fill="none" stroke="var(--_line)" stroke-width="0.75" marker-end="url(#arrowhead)" />
<polyline points="397.96250000000003,132 397.96250000000003,270 413.5375,270" fill="none" stroke="var(--_line)" stroke-width="0.75" marker-end="url(#arrowhead)" />
<polyline points="397.96250000000003,132 397.96250000000003,152 593.5375000000001,152 593.5375000000001,270 579.45,270" fill="none" stroke="var(--_line)" stroke-width="0.75" marker-end="url(#arrowhead)" />
<polyline points="568.3625,132 568.3625,152 372.46250000000003,152 372.46250000000003,270 370.15000000000003,270" fill="none" stroke="var(--_line)" stroke-width="0.75" marker-end="url(#arrowhead)" />
<polyline points="568.3625,132 568.3625,270 552.7875,270" fill="none" stroke="var(--_line)" stroke-width="0.75" marker-end="url(#arrowhead)" />
<polyline points="568.3625,132 568.3625,152 698.3125,152 698.3125,270 783.0500000000002,270" fill="none" stroke="var(--_line)" stroke-width="0.75" marker-end="url(#arrowhead)" />
<polyline points="286.225,288 286.225,308 206.96249999999998,308 206.96249999999998,426 61.99999999999994,426" fill="none" stroke="var(--_line)" stroke-width="0.75" marker-end="url(#arrowhead)" />
<polyline points="286.225,288 286.225,308 590.2875,308 590.2875,426 504.1000000000001,426" fill="none" stroke="var(--_line)" stroke-width="0.75" marker-end="url(#arrowhead)" />
<polyline points="483.1625,288 483.1625,308 293.6875,308 293.6875,426 480.09999999999997,426" fill="none" stroke="var(--_line)" stroke-width="0.75" marker-end="url(#arrowhead)" />
<polyline points="483.1625,288 483.1625,308 689.0625,308 689.0625,426 504.1000000000001,426" fill="none" stroke="var(--_line)" stroke-width="0.75" marker-end="url(#arrowhead)" />
<polyline points="681.2500000000001,288 681.2500000000001,308 401.4,308 401.4,426 480.09999999999997,426" fill="none" stroke="var(--_line)" stroke-width="0.75" marker-end="url(#arrowhead)" />
<polyline points="681.2500000000001,288 681.2500000000001,308 775.7875000000001,308 775.7875000000001,426 922.2,426" fill="none" stroke="var(--_line)" stroke-width="0.75" marker-end="url(#arrowhead)" />
<rect x="314.0375" y="96" width="167.85000000000002" height="36" rx="0" ry="0" fill="var(--_node-fill)" stroke="var(--_node-stroke)" stroke-width="0.75" />
<rect x="505.88749999999993" y="96" width="124.95" height="36" rx="0" ry="0" fill="var(--_node-fill)" stroke="var(--_node-stroke)" stroke-width="0.75" />
<rect x="202.3" y="252" width="167.85000000000002" height="36" rx="0" ry="0" fill="var(--_node-fill)" stroke="var(--_node-stroke)" stroke-width="0.75" />
<rect x="413.5375" y="252" width="139.25" height="36" rx="0" ry="0" fill="var(--_node-fill)" stroke="var(--_node-stroke)" stroke-width="0.75" />
<rect x="579.45" y="252" width="203.60000000000002" height="36" rx="0" ry="0" fill="var(--_node-fill)" stroke="var(--_node-stroke)" stroke-width="0.75" />
<rect x="61.99999999999994" y="408" width="418.1" height="36" rx="0" ry="0" fill="var(--_node-fill)" stroke="var(--_node-stroke)" stroke-width="0.75" />
<rect x="504.1000000000001" y="408" width="418.1" height="36" rx="0" ry="0" fill="var(--_node-fill)" stroke="var(--_node-stroke)" stroke-width="0.75" />
<text x="397.96250000000003" y="114" text-anchor="middle" dy="0.35em" font-size="13" font-weight="500" fill="var(--_text)">Tehnološki Napredak</text>
<text x="568.3625" y="114" text-anchor="middle" dy="0.35em" font-size="13" font-weight="500" fill="var(--_text)">Globalizacija</text>
<text x="286.225" y="270" text-anchor="middle" dy="0.35em" font-size="13" font-weight="500" fill="var(--_text)">Vrijednosti i Norme</text>
<text x="483.1625" y="270" text-anchor="middle" dy="0.35em" font-size="13" font-weight="500" fill="var(--_text)">Rad i Ekonomija</text>
<text x="681.25" y="270" text-anchor="middle" dy="0.35em" font-size="13" font-weight="500" fill="var(--_text)">Politika i Javni Diskurs</text>
<text x="271.04999999999995" y="426" text-anchor="middle" dy="0.35em" font-size="13" font-weight="500" fill="var(--_text)">Nove Norme Tolerancija Individualizam Fleksibilnost...</text>
<text x="713.1500000000001" y="426" text-anchor="middle" dy="0.35em" font-size="13" font-weight="500" fill="var(--_text)">Novi Izazovi Polarizacija Digitalni jaz Dezinformacije</text>
</svg>