<svg xmlns="http://www.w3.org/2000/svg" viewBox="0 0 1084.1999999999998 604" width="1084.1999999999998" height="604" style="--bg:#FFFFFF;--fg:#1b2a4a;--line:#5c7caa;--accent:#5c7caa;--surface:#dceefb;--border:#4a86c8;--muted:#6c84a3;background:var(--bg)">
<style>
  @import url('https://fonts.googleapis.com/css2?family=Inter:wght@400;500;600;700&amp;display=swap');
  text { font-family: 'Inter', system-ui, sans-serif; }
  svg {
    /* Derived from --bg and --fg (overridable via --line, --accent, etc.) */
    --_text:          var(--fg);
    --_text-sec:      var(--muted, color-mix(in srgb, var(--fg) 60%, var(--bg)));
    --_text-muted:    var(--muted, color-mix(in srgb, var(--fg) 40%, var(--bg)));
    --_text-faint:    color-mix(in srgb, var(--fg) 25%, var(--bg));
    --_line:          var(--line, color-mix(in srgb, var(--fg) 30%, var(--bg)));
    --_arrow:         var(--accent, color-mix(in srgb, var(--fg) 50%, var(--bg)));
    --_node-fill:     var(--surface, color-mix(in srgb, var(--fg) 3%, var(--bg)));
    --_node-stroke:   var(--border, color-mix(in srgb, var(--fg) 20%, var(--bg)));
    --_group-fill:    var(--bg);
    --_group-hdr:     color-mix(in srgb, var(--fg) 5%, var(--bg));
    --_inner-stroke:  color-mix(in srgb, var(--fg) 12%, var(--bg));
    --_key-badge:     color-mix(in srgb, var(--fg) 10%, var(--bg));
  }
</style>
<defs>
  <marker id="arrowhead" markerWidth="8" markerHeight="4.8" refX="8" refY="2.4" orient="auto">
    <polygon points="0 0, 8 2.4, 0 4.8" fill="var(--_arrow)" />
  </marker>
  <marker id="arrowhead-start" markerWidth="8" markerHeight="4.8" refX="0" refY="2.4" orient="auto-start-reverse">
    <polygon points="8 0, 0 2.4, 8 4.8" fill="var(--_arrow)" />
  </marker>
</defs>
<rect x="386.4749999999999" y="40" width="311.25" height="96" rx="0" ry="0" fill="var(--_group-fill)" stroke="var(--_node-stroke)" stroke-width="1" />
<rect x="386.4749999999999" y="40" width="311.25" height="28" rx="0" ry="0" fill="var(--_group-hdr)" stroke="var(--_node-stroke)" stroke-width="1" />
<text x="398.4749999999999" y="54" dy="0.35em" font-size="12" font-weight="600" fill="var(--_text-sec)">&quot;Korisnički Ulaz&quot;</text>
<rect x="165.1249999999999" y="140" width="753.95" height="172" rx="0" ry="0" fill="var(--_group-fill)" stroke="var(--_node-stroke)" stroke-width="1" />
<rect x="165.1249999999999" y="140" width="753.95" height="28" rx="0" ry="0" fill="var(--_group-hdr)" stroke="var(--_node-stroke)" stroke-width="1" />
<text x="177.1249999999999" y="154" dy="0.35em" font-size="12" font-weight="600" fill="var(--_text-sec)">&quot;Orkestracija i Izvršavanje&quot;</text>
<rect x="39.99999999999994" y="316" width="1004.1999999999999" height="96" rx="0" ry="0" fill="var(--_group-fill)" stroke="var(--_node-stroke)" stroke-width="1" />
<rect x="39.99999999999994" y="316" width="1004.1999999999999" height="28" rx="0" ry="0" fill="var(--_group-hdr)" stroke="var(--_node-stroke)" stroke-width="1" />
<text x="51.99999999999994" y="330" dy="0.35em" font-size="12" font-weight="600" fill="var(--_text-sec)">&quot;Ambijentalni Izlaz&quot;</text>
<polyline points="542.0999999999999,136 542.0999999999999,176" fill="none" stroke="var(--_line)" stroke-width="0.75" marker-end="url(#arrowhead)" />
<polyline points="542.0999999999999,312 542.0999999999999,352" fill="none" stroke="var(--_line)" stroke-width="0.75" marker-end="url(#arrowhead)" />
<polyline points="677.3499999999999,382 677.3499999999999,432 630.8125,432 630.8125,452" fill="none" stroke="var(--_line)" stroke-width="0.75" marker-end="url(#arrowhead)" />
<polyline points="926.3999999999999,382 926.3999999999999,432 453.38749999999993,432 453.38749999999993,546 440.2999999999999,546" fill="none" stroke="var(--_line)" stroke-width="0.75" stroke-dasharray="4 4" marker-end="url(#arrowhead)" />
<polyline points="630.8125,488 630.8125,546 643.8999999999999,546" fill="none" stroke="var(--_line)" stroke-width="0.75" marker-end="url(#arrowhead)" />
<polyline points="511.71249999999986,224 511.71249999999986,244 257.89999999999986,244 257.89999999999986,264" fill="none" stroke="var(--_line)" stroke-width="0.75" marker-end="url(#arrowhead)" />
<polyline points="511.71249999999986,224 511.71249999999986,244 421.14999999999986,244 421.14999999999986,264" fill="none" stroke="var(--_line)" stroke-width="0.75" marker-end="url(#arrowhead)" />
<polyline points="511.71249999999986,224 511.71249999999986,244 602.2749999999999,244 602.2749999999999,264" fill="none" stroke="var(--_line)" stroke-width="0.75" marker-end="url(#arrowhead)" />
<polyline points="511.71249999999986,224 511.71249999999986,244 811.9999999999999,244 811.9999999999999,264" fill="none" stroke="var(--_line)" stroke-width="0.75" marker-end="url(#arrowhead)" />
<rect x="475.3875" y="452" width="310.85" height="36" rx="0" ry="0" fill="var(--_node-fill)" stroke="var(--_node-stroke)" stroke-width="0.75" />
<rect x="440.2999999999999" y="528" width="203.60000000000002" height="36" rx="0" ry="0" fill="var(--_node-fill)" stroke="var(--_node-stroke)" stroke-width="0.75" />
<rect x="402.4749999999999" y="88" width="60" height="36" rx="0" ry="0" fill="var(--_node-fill)" stroke="var(--_node-stroke)" stroke-width="0.75" />
<rect x="486.4749999999999" y="88" width="82.05000000000001" height="36" rx="0" ry="0" fill="var(--_node-fill)" stroke="var(--_node-stroke)" stroke-width="0.75" />
<rect x="592.5249999999999" y="88" width="89.2" height="36" rx="0" ry="0" fill="var(--_node-fill)" stroke="var(--_node-stroke)" stroke-width="0.75" />
<rect x="445.66249999999985" y="188" width="132.10000000000002" height="36" rx="0" ry="0" fill="var(--_node-fill)" stroke="var(--_node-stroke)" stroke-width="0.75" />
<rect x="181.1249999999999" y="264" width="153.55" height="36" rx="0" ry="0" fill="var(--_node-fill)" stroke="var(--_node-stroke)" stroke-width="0.75" />
<rect x="358.67499999999984" y="264" width="124.95" height="36" rx="0" ry="0" fill="var(--_node-fill)" stroke="var(--_node-stroke)" stroke-width="0.75" />
<rect x="507.6249999999999" y="264" width="189.3" height="36" rx="0" ry="0" fill="var(--_node-fill)" stroke="var(--_node-stroke)" stroke-width="0.75" />
<rect x="720.9249999999998" y="264" width="182.15" height="36" rx="0" ry="0" fill="var(--_node-fill)" stroke="var(--_node-stroke)" stroke-width="0.75" />
<rect x="55.99999999999996" y="364" width="232.20000000000002" height="36" rx="0" ry="0" fill="var(--_node-fill)" stroke="var(--_node-stroke)" stroke-width="0.75" />
<rect x="312.19999999999993" y="364" width="217.9" height="36" rx="0" ry="0" fill="var(--_node-fill)" stroke="var(--_node-stroke)" stroke-width="0.75" />
<rect x="554.0999999999999" y="364" width="246.50000000000003" height="36" rx="0" ry="0" fill="var(--_node-fill)" stroke="var(--_node-stroke)" stroke-width="0.75" />
<rect x="824.5999999999999" y="364" width="203.60000000000002" height="36" rx="0" ry="0" fill="var(--_node-fill)" stroke="var(--_node-stroke)" stroke-width="0.75" />
<text x="630.8125" y="470" text-anchor="middle" dy="0.35em" font-size="13" font-weight="500" fill="var(--_text)">Korisnik se budi u optimalnom okruženju</text>
<text x="542.0999999999999" y="546" text-anchor="middle" dy="0.35em" font-size="13" font-weight="500" fill="var(--_text)">Prezentacija informacija</text>
<text x="432.4749999999999" y="106" text-anchor="middle" dy="0.35em" font-size="13" font-weight="500" fill="var(--_text)">A</text>
<text x="527.4999999999999" y="106" text-anchor="middle" dy="0.35em" font-size="13" font-weight="500" fill="var(--_text)">Vrijeme</text>
<text x="637.1249999999999" y="106" text-anchor="middle" dy="0.35em" font-size="13" font-weight="500" fill="var(--_text)">Postavke</text>
<text x="511.71249999999986" y="206" text-anchor="middle" dy="0.35em" font-size="13" font-weight="500" fill="var(--_text)">Agent-Dirigent</text>
<text x="257.89999999999986" y="282" text-anchor="middle" dy="0.35em" font-size="13" font-weight="500" fill="var(--_text)">Agent za Rasvjetu</text>
<text x="421.14999999999986" y="282" text-anchor="middle" dy="0.35em" font-size="13" font-weight="500" fill="var(--_text)">Agent za Zvuk</text>
<text x="602.2749999999999" y="282" text-anchor="middle" dy="0.35em" font-size="13" font-weight="500" fill="var(--_text)">Agent za Klimatizaciju</text>
<text x="811.9999999999999" y="282" text-anchor="middle" dy="0.35em" font-size="13" font-weight="500" fill="var(--_text)">Agent za Informiranje</text>
<text x="172.09999999999997" y="382" text-anchor="middle" dy="0.35em" font-size="13" font-weight="500" fill="var(--_text)">Postupno pojačavanje svjetla</text>
<text x="421.1499999999999" y="382" text-anchor="middle" dy="0.35em" font-size="13" font-weight="500" fill="var(--_text)">Postupno pojačavanje zvuka</text>
<text x="677.3499999999999" y="382" text-anchor="middle" dy="0.35em" font-size="13" font-weight="500" fill="var(--_text)">Postizanje ciljane temperature</text>
<text x="926.3999999999999" y="382" text-anchor="middle" dy="0.35em" font-size="13" font-weight="500" fill="var(--_text)">Priprema dnevnog sažetka</text>
</svg>