<svg xmlns="http://www.w3.org/2000/svg" viewBox="0 0 1900.2999999999997 479" width="1900.2999999999997" height="479" style="--bg:#FFFFFF;--fg:#1b2a4a;--line:#5c7caa;--accent:#5c7caa;--surface:#dceefb;--border:#4a86c8;--muted:#6c84a3;background:var(--bg)">
<style>
  @import url('https://fonts.googleapis.com/css2?family=Inter:wght@400;500;600;700&amp;display=swap');
  text { font-family: 'Inter', system-ui, sans-serif; }
  svg {
    /* Derived from --bg and --fg (overridable via --line, --accent, etc.) */
    --_text:          var(--fg);
    --_text-sec:      var(--muted, color-mix(in srgb, var(--fg) 60%, var(--bg)));
    --_text-muted:    var(--muted, color-mix(in srgb, var(--fg) 40%, var(--bg)));
    --_text-faint:    color-mix(in srgb, var(--fg) 25%, var(--bg));
    --_line:          var(--line, color-mix(in srgb, var(--fg) 30%, var(--bg)));
    --_arrow:         var(--accent, color-mix(in srgb, var(--fg) 50%, var(--bg)));
    --_node-fill:     var(--surface, color-mix(in srgb, var(--fg) 3%, var(--bg)));
    --_node-stroke:   var(--border, color-mix(in srgb, var(--fg) 20%, var(--bg)));
    --_group-fill:    var(--bg);
    --_group-hdr:     color-mix(in srgb, var(--fg) 5%, var(--bg));
    --_inner-stroke:  color-mix(in srgb, var(--fg) 12%, var(--bg));
    --_key-badge:     color-mix(in srgb, var(--fg) 10%, var(--bg));
  }
</style>
<defs>
  <marker id="arrowhead" markerWidth="8" markerHeight="4.8" refX="8" refY="2.4" orient="auto">
    <polygon points="0 0, 8 2.4, 0 4.8" fill="var(--_arrow)" />
  </marker>
  <marker id="arrowhead-start" markerWidth="8" markerHeight="4.8" refX="0" refY="2.4" orient="auto-start-reverse">
    <polygon points="8 0, 0 2.4, 8 4.8" fill="var(--_arrow)" />
  </marker>
</defs>
<rect x="40" y="157" width="912.4499999999999" height="282" rx="0" ry="0" fill="var(--_group-fill)" stroke="var(--_node-stroke)" stroke-width="1" />
<rect x="40" y="157" width="912.4499999999999" height="28" rx="0" ry="0" fill="var(--_group-hdr)" stroke="var(--_node-stroke)" stroke-width="1" />
<text x="52" y="171" dy="0.35em" font-size="12" font-weight="600" fill="var(--_text-sec)">&quot;Duhovni i intelektualni procesi&quot;</text>
<rect x="871.675" y="40" width="171.25" height="96" rx="0" ry="0" fill="var(--_group-fill)" stroke="var(--_node-stroke)" stroke-width="1" />
<rect x="871.675" y="40" width="171.25" height="28" rx="0" ry="0" fill="var(--_group-hdr)" stroke="var(--_node-stroke)" stroke-width="1" />
<text x="883.675" y="54" dy="0.35em" font-size="12" font-weight="600" fill="var(--_text-sec)">&quot;Tehnološki pokretač&quot;</text>
<rect x="976.4499999999998" y="203.5" width="883.8499999999999" height="189" rx="0" ry="0" fill="var(--_group-fill)" stroke="var(--_node-stroke)" stroke-width="1" />
<rect x="976.4499999999998" y="203.5" width="883.8499999999999" height="28" rx="0" ry="0" fill="var(--_group-hdr)" stroke="var(--_node-stroke)" stroke-width="1" />
<text x="988.4499999999998" y="217.5" dy="0.35em" font-size="12" font-weight="600" fill="var(--_text-sec)">&quot;Ishod&quot;</text>
<polyline points="957.3,136 957.3,164.5 496.22499999999997,164.5 496.22499999999997,193" fill="none" stroke="var(--_line)" stroke-width="0.75" marker-end="url(#arrowhead)" />
<polyline points="957.3,136 957.3,164.5 1418.3749999999998,164.5 1418.3749999999998,239.5" fill="none" stroke="var(--_line)" stroke-width="0.75" marker-end="url(#arrowhead)" />
<polyline points="305.5625,241 305.5625,269.5 161.375,269.5 161.375,298" fill="none" stroke="var(--_line)" stroke-width="0.75" marker-end="url(#arrowhead)" />
<polyline points="305.5625,241 305.5625,269.5 449.75,269.5 449.75,298" fill="none" stroke="var(--_line)" stroke-width="0.75" marker-end="url(#arrowhead)" />
<polyline points="161.375,334 161.375,391" fill="none" stroke="var(--_line)" stroke-width="0.75" marker-end="url(#arrowhead)" />
<polyline points="449.75,334 449.75,391" fill="none" stroke="var(--_line)" stroke-width="0.75" marker-end="url(#arrowhead)" />
<polyline points="752.425,241 752.425,298" fill="none" stroke="var(--_line)" stroke-width="0.75" marker-end="url(#arrowhead)" />
<polyline points="1094.2499999999998,287.5 1094.2499999999998,362.5 1291.5499999999997,362.5" fill="none" stroke="var(--_line)" stroke-width="0.75" marker-end="url(#arrowhead)" />
<polyline points="1382.6249999999998,287.5 1382.6249999999998,344.5" fill="none" stroke="var(--_line)" stroke-width="0.75" marker-end="url(#arrowhead)" />
<polyline points="1706.7499999999998,287.5 1706.7499999999998,362.5 1473.6999999999998,362.5" fill="none" stroke="var(--_line)" stroke-width="0.75" marker-end="url(#arrowhead)" />
<rect x="428.16499999999996" y="151" width="136.12" height="27" rx="4" ry="4" fill="var(--bg)" stroke="var(--_inner-stroke)" stroke-width="0.5" />
<text x="496.22499999999997" y="164.5" text-anchor="middle" dy="0.35em" font-size="11" font-weight="400" fill="var(--_text-muted)">ubrzava širenje ideja</text>
<rect x="1347.4549999999997" y="151" width="141.84" height="27" rx="4" ry="4" fill="var(--bg)" stroke="var(--_inner-stroke)" stroke-width="0.5" />
<text x="1418.3749999999998" y="164.5" text-anchor="middle" dy="0.35em" font-size="11" font-weight="400" fill="var(--_text-muted)">ubrzava širenje znanja</text>
<rect x="136.215" y="256" width="50.32" height="27" rx="4" ry="4" fill="var(--bg)" stroke="var(--_inner-stroke)" stroke-width="0.5" />
<text x="161.375" y="269.5" text-anchor="middle" dy="0.35em" font-size="11" font-weight="400" fill="var(--_text-muted)">potiče</text>
<rect x="418.87" y="256" width="61.760000000000005" height="27" rx="4" ry="4" fill="var(--bg)" stroke="var(--_inner-stroke)" stroke-width="0.5" />
<text x="449.75" y="269.5" text-anchor="middle" dy="0.35em" font-size="11" font-weight="400" fill="var(--_text-muted)">osnažuje</text>
<rect x="127.63499999999999" y="349" width="67.48" height="27" rx="4" ry="4" fill="var(--bg)" stroke="var(--_inner-stroke)" stroke-width="0.5" />
<text x="161.375" y="362.5" text-anchor="middle" dy="0.35em" font-size="11" font-weight="400" fill="var(--_text-muted)">omogućuje</text>
<rect x="418.87" y="349" width="61.760000000000005" height="27" rx="4" ry="4" fill="var(--bg)" stroke="var(--_inner-stroke)" stroke-width="0.5" />
<text x="449.75" y="362.5" text-anchor="middle" dy="0.35em" font-size="11" font-weight="400" fill="var(--_text-muted)">oblikuje</text>
<rect x="724.405" y="256" width="56.04" height="27" rx="4" ry="4" fill="var(--bg)" stroke="var(--_inner-stroke)" stroke-width="0.5" />
<text x="752.425" y="269.5" text-anchor="middle" dy="0.35em" font-size="11" font-weight="400" fill="var(--_text-muted)">promiče</text>
<rect x="1069.0899999999997" y="302.5" width="50.32" height="27" rx="4" ry="4" fill="var(--bg)" stroke="var(--_inner-stroke)" stroke-width="0.5" />
<text x="1094.2499999999998" y="316" text-anchor="middle" dy="0.35em" font-size="11" font-weight="400" fill="var(--_text-muted)">vode k</text>
<rect x="1357.4649999999997" y="302.5" width="50.32" height="27" rx="4" ry="4" fill="var(--bg)" stroke="var(--_inner-stroke)" stroke-width="0.5" />
<text x="1382.6249999999998" y="316" text-anchor="middle" dy="0.35em" font-size="11" font-weight="400" fill="var(--_text-muted)">vode k</text>
<rect x="1681.5899999999997" y="302.5" width="50.32" height="27" rx="4" ry="4" fill="var(--bg)" stroke="var(--_inner-stroke)" stroke-width="0.5" />
<text x="1706.7499999999998" y="316" text-anchor="middle" dy="0.35em" font-size="11" font-weight="400" fill="var(--_text-muted)">vode k</text>
<rect x="250.2375" y="205" width="110.65" height="36" rx="0" ry="0" fill="var(--_node-fill)" stroke="var(--_node-stroke)" stroke-width="0.75" />
<rect x="56" y="298" width="210.75000000000003" height="36" rx="0" ry="0" fill="var(--_node-fill)" stroke="var(--_node-stroke)" stroke-width="0.75" />
<rect x="308.625" y="298" width="282.25" height="36" rx="0" ry="0" fill="var(--_node-fill)" stroke="var(--_node-stroke)" stroke-width="0.75" />
<rect x="59.575" y="391" width="203.60000000000002" height="36" rx="0" ry="0" fill="var(--_node-fill)" stroke="var(--_node-stroke)" stroke-width="0.75" />
<rect x="287.17499999999995" y="391" width="325.15000000000003" height="36" rx="0" ry="0" fill="var(--_node-fill)" stroke="var(--_node-stroke)" stroke-width="0.75" />
<rect x="568.4" y="205" width="368.05" height="36" rx="0" ry="0" fill="var(--_node-fill)" stroke="var(--_node-stroke)" stroke-width="0.75" />
<rect x="614.875" y="298" width="275.1" height="36" rx="0" ry="0" fill="var(--_node-fill)" stroke="var(--_node-stroke)" stroke-width="0.75" />
<rect x="887.675" y="88" width="139.25" height="36" rx="0" ry="0" fill="var(--_node-fill)" stroke="var(--_node-stroke)" stroke-width="0.75" />
<rect x="992.4499999999998" y="251.5" width="203.60000000000002" height="36" rx="0" ry="0" fill="var(--_node-fill)" stroke="var(--_node-stroke)" stroke-width="0.75" />
<rect x="1220.0499999999997" y="251.5" width="325.15000000000003" height="36" rx="0" ry="0" fill="var(--_node-fill)" stroke="var(--_node-stroke)" stroke-width="0.75" />
<rect x="1569.1999999999998" y="251.5" width="275.1" height="36" rx="0" ry="0" fill="var(--_node-fill)" stroke="var(--_node-stroke)" stroke-width="0.75" />
<rect x="1291.5499999999997" y="344.5" width="182.15" height="36" rx="0" ry="0" fill="var(--_node-fill)" stroke="var(--_node-stroke)" stroke-width="0.75" />
<text x="305.5625" y="223" text-anchor="middle" dy="0.35em" font-size="13" font-weight="500" fill="var(--_text)">Reformacija</text>
<text x="161.375" y="316" text-anchor="middle" dy="0.35em" font-size="13" font-weight="500" fill="var(--_text)">Preispitivanje autoriteta</text>
<text x="449.75" y="316" text-anchor="middle" dy="0.35em" font-size="13" font-weight="500" fill="var(--_text)">Individualizam i osobna odgovornost</text>
<text x="161.375" y="409" text-anchor="middle" dy="0.35em" font-size="13" font-weight="500" fill="var(--_text)">Razvoj znanstvene metode</text>
<text x="449.75" y="409" text-anchor="middle" dy="0.35em" font-size="13" font-weight="500" fill="var(--_text)">Uloga znanstvenika kao samostalnog agenta</text>
<text x="752.425" y="223" text-anchor="middle" dy="0.35em" font-size="13" font-weight="500" fill="var(--_text)">Protestantska etika (Weber, 1930; Merton, 1970)</text>
<text x="752.425" y="316" text-anchor="middle" dy="0.35em" font-size="13" font-weight="500" fill="var(--_text)">Racionalizacija i radna disciplina</text>
<text x="957.3" y="106" text-anchor="middle" dy="0.35em" font-size="13" font-weight="500" fill="var(--_text)">Tiskarski stroj</text>
<text x="1094.2499999999998" y="269.5" text-anchor="middle" dy="0.35em" font-size="13" font-weight="500" fill="var(--_text)">Razvoj znanstvene metode</text>
<text x="1382.6249999999998" y="269.5" text-anchor="middle" dy="0.35em" font-size="13" font-weight="500" fill="var(--_text)">Uloga znanstvenika kao samostalnog agenta</text>
<text x="1706.7499999999998" y="269.5" text-anchor="middle" dy="0.35em" font-size="13" font-weight="500" fill="var(--_text)">Racionalizacija i radna disciplina</text>
<text x="1382.6249999999998" y="362.5" text-anchor="middle" dy="0.35em" font-size="13" font-weight="500" fill="var(--_text)">Znanstvena revolucija</text>
</svg>