<svg xmlns="http://www.w3.org/2000/svg" viewBox="0 0 543.0875 972" width="543.0875" height="972" style="--bg:#FFFFFF;--fg:#1b2a4a;--line:#5c7caa;--accent:#5c7caa;--surface:#dceefb;--border:#4a86c8;--muted:#6c84a3;background:var(--bg)">
<style>
  @import url('https://fonts.googleapis.com/css2?family=Inter:wght@400;500;600;700&amp;display=swap');
  text { font-family: 'Inter', system-ui, sans-serif; }
  svg {
    /* Derived from --bg and --fg (overridable via --line, --accent, etc.) */
    --_text:          var(--fg);
    --_text-sec:      var(--muted, color-mix(in srgb, var(--fg) 60%, var(--bg)));
    --_text-muted:    var(--muted, color-mix(in srgb, var(--fg) 40%, var(--bg)));
    --_text-faint:    color-mix(in srgb, var(--fg) 25%, var(--bg));
    --_line:          var(--line, color-mix(in srgb, var(--fg) 30%, var(--bg)));
    --_arrow:         var(--accent, color-mix(in srgb, var(--fg) 50%, var(--bg)));
    --_node-fill:     var(--surface, color-mix(in srgb, var(--fg) 3%, var(--bg)));
    --_node-stroke:   var(--border, color-mix(in srgb, var(--fg) 20%, var(--bg)));
    --_group-fill:    var(--bg);
    --_group-hdr:     color-mix(in srgb, var(--fg) 5%, var(--bg));
    --_inner-stroke:  color-mix(in srgb, var(--fg) 12%, var(--bg));
    --_key-badge:     color-mix(in srgb, var(--fg) 10%, var(--bg));
  }
</style>
<defs>
  <marker id="arrowhead" markerWidth="8" markerHeight="4.8" refX="8" refY="2.4" orient="auto">
    <polygon points="0 0, 8 2.4, 0 4.8" fill="var(--_arrow)" />
  </marker>
  <marker id="arrowhead-start" markerWidth="8" markerHeight="4.8" refX="0" refY="2.4" orient="auto-start-reverse">
    <polygon points="8 0, 0 2.4, 8 4.8" fill="var(--_arrow)" />
  </marker>
</defs>
<rect x="176.76249999999993" y="40" width="313.8125" height="112" rx="0" ry="0" fill="var(--_group-fill)" stroke="var(--_node-stroke)" stroke-width="1" />
<rect x="176.76249999999993" y="40" width="313.8125" height="28" rx="0" ry="0" fill="var(--_group-hdr)" stroke="var(--_node-stroke)" stroke-width="1" />
<text x="188.76249999999993" y="54" dy="0.35em" font-size="12" font-weight="600" fill="var(--_text-sec)">Korisnik</text>
<rect x="40" y="196" width="463.0875" height="580" rx="0" ry="0" fill="var(--_group-fill)" stroke="var(--_node-stroke)" stroke-width="1" />
<rect x="40" y="196" width="463.0875" height="28" rx="0" ry="0" fill="var(--_group-hdr)" stroke="var(--_node-stroke)" stroke-width="1" />
<text x="52" y="210" dy="0.35em" font-size="12" font-weight="600" fill="var(--_text-sec)">Agent</text>
<rect x="140.6375" y="820" width="322.65" height="112" rx="0" ry="0" fill="var(--_group-fill)" stroke="var(--_node-stroke)" stroke-width="1" />
<rect x="140.6375" y="820" width="322.65" height="28" rx="0" ry="0" fill="var(--_group-hdr)" stroke="var(--_node-stroke)" stroke-width="1" />
<text x="152.6375" y="834" dy="0.35em" font-size="12" font-weight="600" fill="var(--_text-sec)">Poslovni Sustavi</text>
<polyline points="277.6625,132 277.6625,152 226.48749999999998,152 226.48749999999998,252" fill="none" stroke="var(--_line)" stroke-width="0.75" marker-end="url(#arrowhead)" marker-start="url(#arrowhead-start)" />
<polyline points="226.48749999999998,288 226.48749999999998,308 153.075,308 153.075,408" fill="none" stroke="var(--_line)" stroke-width="0.75" marker-end="url(#arrowhead)" />
<polyline points="153.075,444 153.075,564" fill="none" stroke="var(--_line)" stroke-width="0.75" marker-end="url(#arrowhead)" />
<polyline points="226.48749999999998,288 226.48749999999998,308 348.5,308 348.5,408" fill="none" stroke="var(--_line)" stroke-width="0.75" marker-end="url(#arrowhead)" />
<polyline points="153.075,600 153.075,738 215.18750000000003,738" fill="none" stroke="var(--_line)" stroke-width="0.75" marker-end="url(#arrowhead)" marker-start="url(#arrowhead-start)" />
<polyline points="277.6625,132 277.6625,152 450.85,152 450.85,738 340.13750000000005,738" fill="none" stroke="var(--_line)" stroke-width="0.75" marker-end="url(#arrowhead)" marker-start="url(#arrowhead-start)" />
<polyline points="277.6625,756 277.6625,776 192.6375,776 192.6375,876" fill="none" stroke="var(--_line)" stroke-width="0.75" marker-end="url(#arrowhead)" marker-start="url(#arrowhead-start)" />
<polyline points="277.6625,756 277.6625,776 301.9625,776 301.9625,876" fill="none" stroke="var(--_line)" stroke-width="0.75" marker-end="url(#arrowhead)" marker-start="url(#arrowhead-start)" />
<polyline points="277.6625,756 277.6625,776 411.2875,776 411.2875,876" fill="none" stroke="var(--_line)" stroke-width="0.75" marker-end="url(#arrowhead)" marker-start="url(#arrowhead-start)" />
<rect x="240.21250000000003" y="96" width="74.9" height="36" rx="0" ry="0" fill="var(--_node-fill)" stroke="var(--_node-stroke)" stroke-width="0.75" />
<rect x="156.86249999999998" y="252" width="139.25" height="36" rx="0" ry="0" fill="var(--_node-fill)" stroke="var(--_node-stroke)" stroke-width="0.75" />
<rect x="61.999999999999986" y="408" width="182.15" height="36" rx="0" ry="0" fill="var(--_node-fill)" stroke="var(--_node-stroke)" stroke-width="0.75" />
<rect x="83.44999999999999" y="564" width="139.25" height="36" rx="0" ry="0" fill="var(--_node-fill)" stroke="var(--_node-stroke)" stroke-width="0.75" />
<rect x="268.15" y="408" width="160.70000000000002" height="36" rx="0" ry="0" fill="var(--_node-fill)" stroke="var(--_node-stroke)" stroke-width="0.75" />
<rect x="215.18750000000003" y="720" width="124.95" height="36" rx="0" ry="0" fill="var(--_node-fill)" stroke="var(--_node-stroke)" stroke-width="0.75" />
<rect x="162.6375" y="876" width="60" height="36" rx="0" ry="0" fill="var(--_node-fill)" stroke="var(--_node-stroke)" stroke-width="0.75" />
<rect x="246.6375" y="876" width="110.65" height="36" rx="0" ry="0" fill="var(--_node-fill)" stroke="var(--_node-stroke)" stroke-width="0.75" />
<rect x="381.2875" y="876" width="60" height="36" rx="0" ry="0" fill="var(--_node-fill)" stroke="var(--_node-stroke)" stroke-width="0.75" />
<text x="277.6625" y="114" text-anchor="middle" dy="0.35em" font-size="13" font-weight="500" fill="var(--_text)">Čovjek</text>
<text x="226.48749999999998" y="270" text-anchor="middle" dy="0.35em" font-size="13" font-weight="500" fill="var(--_text)">Jezgra: NLP/NLU</text>
<text x="153.075" y="426" text-anchor="middle" dy="0.35em" font-size="13" font-weight="500" fill="var(--_text)">Kontekstualna Svijest</text>
<text x="153.075" y="582" text-anchor="middle" dy="0.35em" font-size="13" font-weight="500" fill="var(--_text)">Personalizacija</text>
<text x="348.5" y="426" text-anchor="middle" dy="0.35em" font-size="13" font-weight="500" fill="var(--_text)">Analiza Sentimenta</text>
<text x="277.6625" y="738" text-anchor="middle" dy="0.35em" font-size="13" font-weight="500" fill="var(--_text)">Višekanalnost</text>
<text x="192.6375" y="894" text-anchor="middle" dy="0.35em" font-size="13" font-weight="500" fill="var(--_text)">CRM</text>
<text x="301.9625" y="894" text-anchor="middle" dy="0.35em" font-size="13" font-weight="500" fill="var(--_text)">Baza Znanja</text>
<text x="411.2875" y="894" text-anchor="middle" dy="0.35em" font-size="13" font-weight="500" fill="var(--_text)">ERP</text>
</svg>