<svg xmlns="http://www.w3.org/2000/svg" viewBox="0 0 1162.7649999999999 488" width="1162.7649999999999" height="488" style="--bg:#FFFFFF;--fg:#1b2a4a;--line:#5c7caa;--accent:#5c7caa;--surface:#dceefb;--border:#4a86c8;--muted:#6c84a3;background:var(--bg)">
<style>
  @import url('https://fonts.googleapis.com/css2?family=Inter:wght@400;500;600;700&amp;display=swap');
  text { font-family: 'Inter', system-ui, sans-serif; }
  svg {
    /* Derived from --bg and --fg (overridable via --line, --accent, etc.) */
    --_text:          var(--fg);
    --_text-sec:      var(--muted, color-mix(in srgb, var(--fg) 60%, var(--bg)));
    --_text-muted:    var(--muted, color-mix(in srgb, var(--fg) 40%, var(--bg)));
    --_text-faint:    color-mix(in srgb, var(--fg) 25%, var(--bg));
    --_line:          var(--line, color-mix(in srgb, var(--fg) 30%, var(--bg)));
    --_arrow:         var(--accent, color-mix(in srgb, var(--fg) 50%, var(--bg)));
    --_node-fill:     var(--surface, color-mix(in srgb, var(--fg) 3%, var(--bg)));
    --_node-stroke:   var(--border, color-mix(in srgb, var(--fg) 20%, var(--bg)));
    --_group-fill:    var(--bg);
    --_group-hdr:     color-mix(in srgb, var(--fg) 5%, var(--bg));
    --_inner-stroke:  color-mix(in srgb, var(--fg) 12%, var(--bg));
    --_key-badge:     color-mix(in srgb, var(--fg) 10%, var(--bg));
  }
</style>
<defs>
  <marker id="arrowhead" markerWidth="8" markerHeight="4.8" refX="8" refY="2.4" orient="auto">
    <polygon points="0 0, 8 2.4, 0 4.8" fill="var(--_arrow)" />
  </marker>
  <marker id="arrowhead-start" markerWidth="8" markerHeight="4.8" refX="0" refY="2.4" orient="auto-start-reverse">
    <polygon points="8 0, 0 2.4, 8 4.8" fill="var(--_arrow)" />
  </marker>
</defs>
<polyline points="289.5625,169 289.5625,197.5 145.375,197.5 145.375,226" fill="none" stroke="var(--_line)" stroke-width="0.75" marker-end="url(#arrowhead)" />
<polyline points="289.5625,169 289.5625,197.5 433.75,197.5 433.75,226" fill="none" stroke="var(--_line)" stroke-width="0.75" marker-end="url(#arrowhead)" />
<polyline points="145.375,262 145.375,319" fill="none" stroke="var(--_line)" stroke-width="0.75" marker-end="url(#arrowhead)" />
<polyline points="433.75,262 433.75,319" fill="none" stroke="var(--_line)" stroke-width="0.75" marker-end="url(#arrowhead)" />
<polyline points="782.9000000000001,262 782.9000000000001,319" fill="none" stroke="var(--_line)" stroke-width="0.75" marker-end="url(#arrowhead)" />
<polyline points="145.375,355 145.375,430 517.25,430" fill="none" stroke="var(--_line)" stroke-width="0.75" marker-end="url(#arrowhead)" />
<polyline points="433.75,355 433.75,430 517.25,430" fill="none" stroke="var(--_line)" stroke-width="0.75" marker-end="url(#arrowhead)" />
<polyline points="782.9000000000001,355 782.9000000000001,430 699.4000000000001,430" fill="none" stroke="var(--_line)" stroke-width="0.75" marker-end="url(#arrowhead)" />
<polyline points="600.61,76 600.61,104.5 289.5625,104.5 289.5625,133" fill="none" stroke="var(--_line)" stroke-width="0.75" marker-end="url(#arrowhead)" />
<polyline points="600.61,76 600.61,104.5 1055.845,104.5 1055.845,430 699.4000000000001,430" fill="none" stroke="var(--_line)" stroke-width="0.75" marker-end="url(#arrowhead)" />
<rect x="120.215" y="184" width="50.32" height="27" rx="4" ry="4" fill="var(--bg)" stroke="var(--_inner-stroke)" stroke-width="0.5" />
<text x="145.375" y="197.5" text-anchor="middle" dy="0.35em" font-size="11" font-weight="400" fill="var(--_text-muted)">potiče</text>
<rect x="402.87" y="184" width="61.760000000000005" height="27" rx="4" ry="4" fill="var(--bg)" stroke="var(--_inner-stroke)" stroke-width="0.5" />
<text x="433.75" y="197.5" text-anchor="middle" dy="0.35em" font-size="11" font-weight="400" fill="var(--_text-muted)">osnažuje</text>
<rect x="111.63499999999999" y="277" width="67.48" height="27" rx="4" ry="4" fill="var(--bg)" stroke="var(--_inner-stroke)" stroke-width="0.5" />
<text x="145.375" y="290.5" text-anchor="middle" dy="0.35em" font-size="11" font-weight="400" fill="var(--_text-muted)">omogućuje</text>
<rect x="402.87" y="277" width="61.760000000000005" height="27" rx="4" ry="4" fill="var(--bg)" stroke="var(--_inner-stroke)" stroke-width="0.5" />
<text x="433.75" y="290.5" text-anchor="middle" dy="0.35em" font-size="11" font-weight="400" fill="var(--_text-muted)">oblikuje</text>
<rect x="754.8800000000001" y="277" width="56.04" height="27" rx="4" ry="4" fill="var(--bg)" stroke="var(--_inner-stroke)" stroke-width="0.5" />
<text x="782.9000000000001" y="290.5" text-anchor="middle" dy="0.35em" font-size="11" font-weight="400" fill="var(--_text-muted)">promiče</text>
<rect x="120.215" y="370" width="50.32" height="27" rx="4" ry="4" fill="var(--bg)" stroke="var(--_inner-stroke)" stroke-width="0.5" />
<text x="145.375" y="383.5" text-anchor="middle" dy="0.35em" font-size="11" font-weight="400" fill="var(--_text-muted)">vode k</text>
<rect x="408.59" y="370" width="50.32" height="27" rx="4" ry="4" fill="var(--bg)" stroke="var(--_inner-stroke)" stroke-width="0.5" />
<text x="433.75" y="383.5" text-anchor="middle" dy="0.35em" font-size="11" font-weight="400" fill="var(--_text-muted)">vode k</text>
<rect x="757.7400000000001" y="370" width="50.32" height="27" rx="4" ry="4" fill="var(--bg)" stroke="var(--_inner-stroke)" stroke-width="0.5" />
<text x="782.9000000000001" y="383.5" text-anchor="middle" dy="0.35em" font-size="11" font-weight="400" fill="var(--_text-muted)">vode k</text>
<rect x="221.5025" y="91" width="136.12" height="27" rx="4" ry="4" fill="var(--bg)" stroke="var(--_inner-stroke)" stroke-width="0.5" />
<text x="289.5625" y="104.5" text-anchor="middle" dy="0.35em" font-size="11" font-weight="400" fill="var(--_text-muted)">ubrzava širenje ideja</text>
<rect x="984.9250000000001" y="230.5" width="141.84" height="27" rx="4" ry="4" fill="var(--bg)" stroke="var(--_inner-stroke)" stroke-width="0.5" />
<text x="1055.845" y="244" text-anchor="middle" dy="0.35em" font-size="11" font-weight="400" fill="var(--_text-muted)">ubrzava širenje znanja</text>
<rect x="234.2375" y="133" width="110.65" height="36" rx="0" ry="0" fill="var(--_node-fill)" stroke="var(--_node-stroke)" stroke-width="0.75" />
<rect x="39.999999999999986" y="226" width="210.75000000000003" height="36" rx="0" ry="0" fill="var(--_node-fill)" stroke="var(--_node-stroke)" stroke-width="0.75" />
<rect x="292.625" y="226" width="282.25" height="36" rx="0" ry="0" fill="var(--_node-fill)" stroke="var(--_node-stroke)" stroke-width="0.75" />
<rect x="43.57499999999999" y="319" width="203.60000000000002" height="36" rx="0" ry="0" fill="var(--_node-fill)" stroke="var(--_node-stroke)" stroke-width="0.75" />
<rect x="271.17499999999995" y="319" width="325.15000000000003" height="36" rx="0" ry="0" fill="var(--_node-fill)" stroke="var(--_node-stroke)" stroke-width="0.75" />
<rect x="598.8750000000001" y="226" width="368.05" height="36" rx="0" ry="0" fill="var(--_node-fill)" stroke="var(--_node-stroke)" stroke-width="0.75" />
<rect x="645.3500000000001" y="319" width="275.1" height="36" rx="0" ry="0" fill="var(--_node-fill)" stroke="var(--_node-stroke)" stroke-width="0.75" />
<rect x="530.985" y="40" width="139.25" height="36" rx="0" ry="0" fill="var(--_node-fill)" stroke="var(--_node-stroke)" stroke-width="0.75" />
<rect x="517.25" y="412" width="182.15" height="36" rx="0" ry="0" fill="var(--_node-fill)" stroke="var(--_node-stroke)" stroke-width="0.75" />
<text x="289.5625" y="151" text-anchor="middle" dy="0.35em" font-size="13" font-weight="500" fill="var(--_text)">Reformacija</text>
<text x="145.375" y="244" text-anchor="middle" dy="0.35em" font-size="13" font-weight="500" fill="var(--_text)">Preispitivanje autoriteta</text>
<text x="433.75" y="244" text-anchor="middle" dy="0.35em" font-size="13" font-weight="500" fill="var(--_text)">Individualizam i osobna odgovornost</text>
<text x="145.375" y="337" text-anchor="middle" dy="0.35em" font-size="13" font-weight="500" fill="var(--_text)">Razvoj znanstvene metode</text>
<text x="433.75" y="337" text-anchor="middle" dy="0.35em" font-size="13" font-weight="500" fill="var(--_text)">Uloga znanstvenika kao samostalnog agenta</text>
<text x="782.9000000000001" y="244" text-anchor="middle" dy="0.35em" font-size="13" font-weight="500" fill="var(--_text)">Protestantska etika (Weber, 1930; Merton, 1970)</text>
<text x="782.9000000000001" y="337" text-anchor="middle" dy="0.35em" font-size="13" font-weight="500" fill="var(--_text)">Racionalizacija i radna disciplina</text>
<text x="600.61" y="58" text-anchor="middle" dy="0.35em" font-size="13" font-weight="500" fill="var(--_text)">Tiskarski stroj</text>
<text x="608.325" y="430" text-anchor="middle" dy="0.35em" font-size="13" font-weight="500" fill="var(--_text)">Znanstvena revolucija</text>
</svg>