<svg xmlns="http://www.w3.org/2000/svg" viewBox="0 0 1111.31 269" width="1111.31" height="269" style="--bg:#FFFFFF;--fg:#1b2a4a;--line:#5c7caa;--accent:#5c7caa;--surface:#dceefb;--border:#4a86c8;--muted:#6c84a3;background:var(--bg)">
<style>
  @import url('https://fonts.googleapis.com/css2?family=Inter:wght@400;500;600;700&amp;display=swap');
  text { font-family: 'Inter', system-ui, sans-serif; }
  svg {
    /* Derived from --bg and --fg (overridable via --line, --accent, etc.) */
    --_text:          var(--fg);
    --_text-sec:      var(--muted, color-mix(in srgb, var(--fg) 60%, var(--bg)));
    --_text-muted:    var(--muted, color-mix(in srgb, var(--fg) 40%, var(--bg)));
    --_text-faint:    color-mix(in srgb, var(--fg) 25%, var(--bg));
    --_line:          var(--line, color-mix(in srgb, var(--fg) 30%, var(--bg)));
    --_arrow:         var(--accent, color-mix(in srgb, var(--fg) 50%, var(--bg)));
    --_node-fill:     var(--surface, color-mix(in srgb, var(--fg) 3%, var(--bg)));
    --_node-stroke:   var(--border, color-mix(in srgb, var(--fg) 20%, var(--bg)));
    --_group-fill:    var(--bg);
    --_group-hdr:     color-mix(in srgb, var(--fg) 5%, var(--bg));
    --_inner-stroke:  color-mix(in srgb, var(--fg) 12%, var(--bg));
    --_key-badge:     color-mix(in srgb, var(--fg) 10%, var(--bg));
  }
</style>
<defs>
  <marker id="arrowhead" markerWidth="8" markerHeight="4.8" refX="8" refY="2.4" orient="auto">
    <polygon points="0 0, 8 2.4, 0 4.8" fill="var(--_arrow)" />
  </marker>
  <marker id="arrowhead-start" markerWidth="8" markerHeight="4.8" refX="0" refY="2.4" orient="auto-start-reverse">
    <polygon points="8 0, 0 2.4, 8 4.8" fill="var(--_arrow)" />
  </marker>
</defs>
<rect x="131.74999999999994" y="40" width="939.5600000000001" height="189" rx="0" ry="0" fill="var(--_group-fill)" stroke="var(--_node-stroke)" stroke-width="1" />
<rect x="131.74999999999994" y="40" width="939.5600000000001" height="28" rx="0" ry="0" fill="var(--_group-hdr)" stroke="var(--_node-stroke)" stroke-width="1" />
<text x="143.74999999999994" y="54" dy="0.35em" font-size="12" font-weight="600" fill="var(--_text-sec)">&quot;Shematski prikaz arhitekture AI agenta&quot;</text>
<polyline points="242.96999999999997,124 242.96999999999997,152.5 183.20999999999998,152.5 183.20999999999998,199 468.98499999999996,199" fill="none" stroke="var(--_line)" stroke-width="0.75" marker-end="url(#arrowhead)" />
<polyline points="581.51,181 581.51,152.5 533.19,152.5 533.19,106 535.19,106" fill="none" stroke="var(--_line)" stroke-width="0.75" marker-end="url(#arrowhead)" />
<polyline points="581.51,181 581.51,152.5 726.47,152.5 726.47,106 722.75,106" fill="none" stroke="var(--_line)" stroke-width="0.75" marker-end="url(#arrowhead)" />
<polyline points="581.51,181 581.51,152.5 1022.71,152.5 1022.71,106 982.5250000000001,106" fill="none" stroke="var(--_line)" stroke-width="0.75" marker-end="url(#arrowhead)" />
<polyline points="483.44,124 483.44,152.5 433.69,152.5 433.69,199 468.98499999999996,199" fill="none" stroke="var(--_line)" stroke-width="0.75" marker-end="url(#arrowhead)" />
<polyline points="678.1500000000001,124 678.1500000000001,152.5 629.8299999999999,152.5 629.8299999999999,199 694.0350000000001,199" fill="none" stroke="var(--_line)" stroke-width="0.75" marker-end="url(#arrowhead)" />
<polyline points="948.6500000000001,124 948.6500000000001,152.5 874.5899999999999,152.5 874.5899999999999,199 694.0350000000001,199" fill="none" stroke="var(--_line)" stroke-width="0.75" marker-end="url(#arrowhead)" />
<polyline points="581.51,181 581.51,152.5 302.72999999999996,152.5 302.72999999999996,106 287.56999999999994,106" fill="none" stroke="var(--_line)" stroke-width="0.75" marker-end="url(#arrowhead)" />
<rect x="143.74999999999997" y="139" width="78.92" height="27" rx="4" ry="4" fill="var(--bg)" stroke="var(--_inner-stroke)" stroke-width="0.5" />
<text x="183.20999999999998" y="152.5" text-anchor="middle" dy="0.35em" font-size="11" font-weight="400" fill="var(--_text-muted)">Upit / Cilj</text>
<rect x="496.59000000000003" y="139" width="73.2" height="27" rx="4" ry="4" fill="var(--bg)" stroke="var(--_inner-stroke)" stroke-width="0.5" />
<text x="533.19" y="152.5" text-anchor="middle" dy="0.35em" font-size="11" font-weight="400" fill="var(--_text-muted)">Koordinira</text>
<rect x="689.87" y="139" width="73.2" height="27" rx="4" ry="4" fill="var(--bg)" stroke="var(--_inner-stroke)" stroke-width="0.5" />
<text x="726.47" y="152.5" text-anchor="middle" dy="0.35em" font-size="11" font-weight="400" fill="var(--_text-muted)">Koordinira</text>
<rect x="986.11" y="139" width="73.2" height="27" rx="4" ry="4" fill="var(--bg)" stroke="var(--_inner-stroke)" stroke-width="0.5" />
<text x="1022.71" y="152.5" text-anchor="middle" dy="0.35em" font-size="11" font-weight="400" fill="var(--_text-muted)">Koordinira</text>
<rect x="382.79" y="139" width="101.8" height="27" rx="4" ry="4" fill="var(--bg)" stroke="var(--_inner-stroke)" stroke-width="0.5" />
<text x="433.69" y="152.5" text-anchor="middle" dy="0.35em" font-size="11" font-weight="400" fill="var(--_text-muted)">Generira korake</text>
<rect x="581.79" y="139" width="96.08" height="27" rx="4" ry="4" fill="var(--bg)" stroke="var(--_inner-stroke)" stroke-width="0.5" />
<text x="629.8299999999999" y="152.5" text-anchor="middle" dy="0.35em" font-size="11" font-weight="400" fill="var(--_text-muted)">Pruža kontekst</text>
<rect x="775.0699999999999" y="139" width="199.04000000000002" height="27" rx="4" ry="4" fill="var(--bg)" stroke="var(--_inner-stroke)" stroke-width="0.5" />
<text x="874.5899999999999" y="152.5" text-anchor="middle" dy="0.35em" font-size="11" font-weight="400" fill="var(--_text-muted)">Izvršava zadatke i vraća podatke</text>
<rect x="234.66999999999996" y="139" width="136.12" height="27" rx="4" ry="4" fill="var(--bg)" stroke="var(--_inner-stroke)" stroke-width="0.5" />
<text x="302.72999999999996" y="152.5" text-anchor="middle" dy="0.35em" font-size="11" font-weight="400" fill="var(--_text-muted)">Sintetizirani odgovor</text>
<rect x="40" y="134.5" width="67.75" height="36" rx="0" ry="0" fill="var(--_node-fill)" stroke="var(--_node-stroke)" stroke-width="0.75" />
<rect x="198.36999999999998" y="88" width="89.2" height="36" rx="0" ry="0" fill="var(--_node-fill)" stroke="var(--_node-stroke)" stroke-width="0.75" />
<rect x="468.98499999999996" y="181" width="225.05" height="36" rx="0" ry="0" fill="var(--_node-fill)" stroke="var(--_node-stroke)" stroke-width="0.75" />
<rect x="431.69" y="88" width="103.5" height="36" rx="0" ry="0" fill="var(--_node-fill)" stroke="var(--_node-stroke)" stroke-width="0.75" />
<rect x="633.55" y="88" width="89.2" height="36" rx="0" ry="0" fill="var(--_node-fill)" stroke="var(--_node-stroke)" stroke-width="0.75" />
<rect x="914.7750000000001" y="88" width="67.75" height="36" rx="0" ry="0" fill="var(--_node-fill)" stroke="var(--_node-stroke)" stroke-width="0.75" />
<text x="73.875" y="152.5" text-anchor="middle" dy="0.35em" font-size="13" font-weight="500" fill="var(--_text)">style</text>
<text x="242.96999999999997" y="106" text-anchor="middle" dy="0.35em" font-size="13" font-weight="500" fill="var(--_text)">Korisnik</text>
<text x="581.51" y="199" text-anchor="middle" dy="0.35em" font-size="13" font-weight="500" fill="var(--_text)">LLM kao Središnji Kontroler</text>
<text x="483.44" y="106" text-anchor="middle" dy="0.35em" font-size="13" font-weight="500" fill="var(--_text)">Planiranje</text>
<text x="678.15" y="106" text-anchor="middle" dy="0.35em" font-size="13" font-weight="500" fill="var(--_text)">Memorija</text>
<text x="948.6500000000001" y="106" text-anchor="middle" dy="0.35em" font-size="13" font-weight="500" fill="var(--_text)">Alati</text>
</svg>