<svg xmlns="http://www.w3.org/2000/svg" viewBox="0 0 971.15 344" width="971.15" height="344" style="--bg:#FFFFFF;--fg:#27272A;background:var(--bg)">
<style>
  @import url('https://fonts.googleapis.com/css2?family=Inter:wght@400;500;600;700&amp;display=swap');
  text { font-family: 'Inter', system-ui, sans-serif; }
  svg {
    /* Derived from --bg and --fg (overridable via --line, --accent, etc.) */
    --_text:          var(--fg);
    --_text-sec:      var(--muted, color-mix(in srgb, var(--fg) 60%, var(--bg)));
    --_text-muted:    var(--muted, color-mix(in srgb, var(--fg) 40%, var(--bg)));
    --_text-faint:    color-mix(in srgb, var(--fg) 25%, var(--bg));
    --_line:          var(--line, color-mix(in srgb, var(--fg) 30%, var(--bg)));
    --_arrow:         var(--accent, color-mix(in srgb, var(--fg) 50%, var(--bg)));
    --_node-fill:     var(--surface, color-mix(in srgb, var(--fg) 3%, var(--bg)));
    --_node-stroke:   var(--border, color-mix(in srgb, var(--fg) 20%, var(--bg)));
    --_group-fill:    var(--bg);
    --_group-hdr:     color-mix(in srgb, var(--fg) 5%, var(--bg));
    --_inner-stroke:  color-mix(in srgb, var(--fg) 12%, var(--bg));
    --_key-badge:     color-mix(in srgb, var(--fg) 10%, var(--bg));
  }
</style>
<defs>
  <marker id="arrowhead" markerWidth="8" markerHeight="4.8" refX="8" refY="2.4" orient="auto">
    <polygon points="0 0, 8 2.4, 0 4.8" fill="var(--_arrow)" />
  </marker>
  <marker id="arrowhead-start" markerWidth="8" markerHeight="4.8" refX="0" refY="2.4" orient="auto-start-reverse">
    <polygon points="8 0, 0 2.4, 8 4.8" fill="var(--_arrow)" />
  </marker>
  <path id="edge-path-0" d="M 478.42499999999995 62 L 478.42499999999995 130" fill="none"/>
  <path id="edge-path-1" d="M -47.433749999999975 172 L 614.75875 172" fill="none"/>
  <path id="edge-path-2" d="M 77.69437500000002 172 L 582.3181249999999 172" fill="none"/>
  <path id="edge-path-3" d="M 278.776875 172 L 530.185625 172" fill="none"/>
  <path id="edge-path-4" d="M 488.42499999999995 158.7 L 488.42499999999995 223.3" fill="none"/>
  <path id="edge-path-5" d="M 417.78749999999997 172 L 712.3125 172" fill="none"/>
  <path id="edge-path-6" d="M 363.77812499999993 172 L 920.634375 172" fill="none"/>
  <path id="edge-path-7" d="M 77.56562500000003 134 L 485.67187499999994 134" fill="none"/>
  <path id="edge-path-8" d="M 310.5375 120.7 L 310.5375 185.3" fill="none"/>
  <path id="edge-path-9" d="M 468.42499999999995 120.7 L 468.42499999999995 185.3" fill="none"/>
  <path id="edge-path-10" d="M 631.675 120.7 L 631.675 185.3" fill="none"/>
  <path id="edge-path-11" d="M 474.42437499999994 134 L 866.763125 134" fill="none"/>
  <path id="edge-path-12" d="M 441.98374999999993 134 L 991.8912499999999 134" fill="none"/>
  <path id="edge-path-13" d="M 868.675 214 L 868.675 282" fill="none"/>
</defs>
<polyline points="478.42499999999995,76 478.42499999999995,116" fill="none" stroke="var(--_line)" stroke-width="0.75" marker-end="url(#arrowhead)" />
<polyline points="478.42499999999995,152 478.42499999999995,172 88.9,172 88.9,210 40,210" fill="none" stroke="var(--_line)" stroke-width="0.75" marker-end="url(#arrowhead)" />
<polyline points="478.42499999999995,152 478.42499999999995,172 181.5875,172 181.5875,210 181.8,210" fill="none" stroke="var(--_line)" stroke-width="0.75" marker-end="url(#arrowhead)" />
<polyline points="478.42499999999995,152 478.42499999999995,172 330.5375,172 330.5375,210 330.74999999999994,210" fill="none" stroke="var(--_line)" stroke-width="0.75" marker-end="url(#arrowhead)" />
<polyline points="478.42499999999995,152 478.42499999999995,172 488.42499999999995,172 488.42499999999995,210 486.84999999999997,210" fill="none" stroke="var(--_line)" stroke-width="0.75" marker-end="url(#arrowhead)" />
<polyline points="478.42499999999995,152 478.42499999999995,172 651.675,172 651.675,210 657.25,210" fill="none" stroke="var(--_line)" stroke-width="0.75" marker-end="url(#arrowhead)" />
<polyline points="478.42499999999995,152 478.42499999999995,172 805.9875,172 805.9875,210 813.3499999999999,210" fill="none" stroke="var(--_line)" stroke-width="0.75" marker-end="url(#arrowhead)" />
<polyline points="98.9,192 98.9,172 161.5875,172 161.5875,134 401.65,134" fill="none" stroke="var(--_line)" stroke-width="0.75" marker-end="url(#arrowhead)" />
<polyline points="244.275,192 244.275,172 310.5375,172 310.5375,134 401.65,134" fill="none" stroke="var(--_line)" stroke-width="0.75" marker-end="url(#arrowhead)" />
<polyline points="396.79999999999995,192 396.79999999999995,172 468.42499999999995,172 468.42499999999995,134 401.65,134" fill="none" stroke="var(--_line)" stroke-width="0.75" marker-end="url(#arrowhead)" />
<polyline points="560.05,192 560.05,172 631.675,172 631.675,134 555.1999999999999,134" fill="none" stroke="var(--_line)" stroke-width="0.75" marker-end="url(#arrowhead)" />
<polyline points="723.3,192 723.3,172 785.9875,172 785.9875,134 555.1999999999999,134" fill="none" stroke="var(--_line)" stroke-width="0.75" marker-end="url(#arrowhead)" />
<polyline points="868.675,192 868.675,172 878.675,172 878.675,134 555.1999999999999,134" fill="none" stroke="var(--_line)" stroke-width="0.75" marker-end="url(#arrowhead)" />
<polyline points="868.675,228 868.675,268" fill="none" stroke="var(--_line)" stroke-width="0.75" marker-end="url(#arrowhead)" />
<rect x="401.65" y="40" width="153.55" height="36" rx="0" ry="0" fill="var(--_node-fill)" stroke="var(--_node-stroke)" stroke-width="0.75" />
<rect x="401.65" y="116" width="153.55" height="36" rx="0" ry="0" fill="var(--_node-fill)" stroke="var(--_node-stroke)" stroke-width="0.75" />
<rect x="40" y="192" width="117.80000000000001" height="36" rx="0" ry="0" fill="var(--_node-fill)" stroke="var(--_node-stroke)" stroke-width="0.75" />
<rect x="181.8" y="192" width="124.95" height="36" rx="0" ry="0" fill="var(--_node-fill)" stroke="var(--_node-stroke)" stroke-width="0.75" />
<rect x="330.74999999999994" y="192" width="132.10000000000002" height="36" rx="0" ry="0" fill="var(--_node-fill)" stroke="var(--_node-stroke)" stroke-width="0.75" />
<rect x="486.84999999999997" y="192" width="146.4" height="36" rx="0" ry="0" fill="var(--_node-fill)" stroke="var(--_node-stroke)" stroke-width="0.75" />
<rect x="657.25" y="192" width="132.10000000000002" height="36" rx="0" ry="0" fill="var(--_node-fill)" stroke="var(--_node-stroke)" stroke-width="0.75" />
<rect x="813.3499999999999" y="192" width="110.65" height="36" rx="0" ry="0" fill="var(--_node-fill)" stroke="var(--_node-stroke)" stroke-width="0.75" />
<rect x="806.1999999999999" y="268" width="124.95" height="36" rx="0" ry="0" fill="var(--_node-fill)" stroke="var(--_node-stroke)" stroke-width="0.75" />
<text x="478.42499999999995" y="58" text-anchor="middle" dy="0.35em" font-size="13" font-weight="500" fill="var(--_text)">User / Manuscript</text>
<text x="478.42499999999995" y="134" text-anchor="middle" dy="0.35em" font-size="13" font-weight="500" fill="var(--_text)">Book Orchestrator</text>
<text x="98.9" y="210" text-anchor="middle" dy="0.35em" font-size="13" font-weight="500" fill="var(--_text)">Web Searcher</text>
<text x="244.275" y="210" text-anchor="middle" dy="0.35em" font-size="13" font-weight="500" fill="var(--_text)">RAG Retriever</text>
<text x="396.79999999999995" y="210" text-anchor="middle" dy="0.35em" font-size="13" font-weight="500" fill="var(--_text)">Content Writer</text>
<text x="560.05" y="210" text-anchor="middle" dy="0.35em" font-size="13" font-weight="500" fill="var(--_text)">Citation Checker</text>
<text x="723.3" y="210" text-anchor="middle" dy="0.35em" font-size="13" font-weight="500" fill="var(--_text)">Style Enforcer</text>
<text x="868.675" y="210" text-anchor="middle" dy="0.35em" font-size="13" font-weight="500" fill="var(--_text)">Proofreader</text>
<text x="868.675" y="286" text-anchor="middle" dy="0.35em" font-size="13" font-weight="500" fill="var(--_text)">Polished Text</text>
</svg>