<svg xmlns="http://www.w3.org/2000/svg" viewBox="0 0 1683.75 236" width="1683.75" height="236" style="--bg:#FFFFFF;--fg:#27272A;background:var(--bg)">
<style>
  @import url('https://fonts.googleapis.com/css2?family=Inter:wght@400;500;600;700&amp;display=swap');
  text { font-family: 'Inter', system-ui, sans-serif; }
  svg {
    /* Derived from --bg and --fg (overridable via --line, --accent, etc.) */
    --_text:          var(--fg);
    --_text-sec:      var(--muted, color-mix(in srgb, var(--fg) 60%, var(--bg)));
    --_text-muted:    var(--muted, color-mix(in srgb, var(--fg) 40%, var(--bg)));
    --_text-faint:    color-mix(in srgb, var(--fg) 25%, var(--bg));
    --_line:          var(--line, color-mix(in srgb, var(--fg) 30%, var(--bg)));
    --_arrow:         var(--accent, color-mix(in srgb, var(--fg) 50%, var(--bg)));
    --_node-fill:     var(--surface, color-mix(in srgb, var(--fg) 3%, var(--bg)));
    --_node-stroke:   var(--border, color-mix(in srgb, var(--fg) 20%, var(--bg)));
    --_group-fill:    var(--bg);
    --_group-hdr:     color-mix(in srgb, var(--fg) 5%, var(--bg));
    --_inner-stroke:  color-mix(in srgb, var(--fg) 12%, var(--bg));
    --_key-badge:     color-mix(in srgb, var(--fg) 10%, var(--bg));
  }
</style>
<defs>
  <marker id="arrowhead" markerWidth="8" markerHeight="4.8" refX="8" refY="2.4" orient="auto">
    <polygon points="0 0, 8 2.4, 0 4.8" fill="var(--_arrow)" />
  </marker>
  <marker id="arrowhead-start" markerWidth="8" markerHeight="4.8" refX="0" refY="2.4" orient="auto-start-reverse">
    <polygon points="8 0, 0 2.4, 8 4.8" fill="var(--_arrow)" />
  </marker>
  <path id="edge-path-0" d="M 181.25 136 L 249.25 136" fill="none"/>
  <path id="edge-path-1" d="M 532.1 136 L 600.1 136" fill="none"/>
  <path id="edge-path-2" d="M 925.85 136 L 993.85 136" fill="none"/>
  <path id="edge-path-3" d="M 1112.25 136 L 1180.25 136" fill="none"/>
  <path id="edge-path-4" d="M 1332.65 95.5 L 1332.65 146.5" fill="none"/>
  <path id="edge-path-5" d="M 1309.3837500000002 166 L 1422.39125 166" fill="none"/>
</defs>
<rect x="40" y="40" width="1603.75" height="156" rx="0" ry="0" fill="var(--_group-fill)" stroke="var(--_node-stroke)" stroke-width="1" />
<rect x="40" y="40" width="1603.75" height="28" rx="0" ry="0" fill="var(--_group-hdr)" stroke="var(--_node-stroke)" stroke-width="1" />
<text x="52" y="54" dy="0.35em" font-size="12" font-weight="600" fill="var(--_text-sec)">&quot;Proces kulturnog širenja&quot;</text>
<polyline points="195.25,136 235.25,136" fill="none" stroke="var(--_line)" stroke-width="0.75" marker-end="url(#arrowhead)" />
<polyline points="546.1,136 586.1,136" fill="none" stroke="var(--_line)" stroke-width="0.75" marker-end="url(#arrowhead)" />
<polyline points="939.85,136 979.85,136" fill="none" stroke="var(--_line)" stroke-width="0.75" marker-end="url(#arrowhead)" />
<polyline points="1126.25,136 1166.25,136" fill="none" stroke="var(--_line)" stroke-width="0.75" marker-end="url(#arrowhead)" />
<polyline points="1312.65,136 1332.65,136 1332.65,106 1352.65,106" fill="none" stroke="var(--_line)" stroke-width="0.75" marker-end="url(#arrowhead)" />
<polyline points="1312.65,136 1332.65,136 1332.65,166 1399.125,166" fill="none" stroke="var(--_line)" stroke-width="0.75" marker-end="url(#arrowhead)" />
<rect x="56" y="118" width="139.25" height="36" rx="0" ry="0" fill="var(--_node-fill)" stroke="var(--_node-stroke)" stroke-width="0.75" />
<rect x="235.25" y="118" width="310.85" height="36" rx="0" ry="0" fill="var(--_node-fill)" stroke="var(--_node-stroke)" stroke-width="0.75" />
<rect x="586.1" y="118" width="353.75" height="36" rx="0" ry="0" fill="var(--_node-fill)" stroke="var(--_node-stroke)" stroke-width="0.75" />
<rect x="979.85" y="118" width="146.4" height="36" rx="0" ry="0" fill="var(--_node-fill)" stroke="var(--_node-stroke)" stroke-width="0.75" />
<rect x="1166.25" y="118" width="146.4" height="36" rx="0" ry="0" fill="var(--_node-fill)" stroke="var(--_node-stroke)" stroke-width="0.75" />
<rect x="1352.65" y="88" width="275.1" height="36" rx="0" ry="0" fill="var(--_node-fill)" stroke="var(--_node-stroke)" stroke-width="0.75" />
<rect x="1399.125" y="148" width="182.15" height="36" rx="0" ry="0" fill="var(--_node-fill)" stroke="var(--_node-stroke)" stroke-width="0.75" />
<text x="125.625" y="136" text-anchor="middle" dy="0.35em" font-size="13" font-weight="500" fill="var(--_text)">Izvorna kultura</text>
<text x="390.675" y="136" text-anchor="middle" dy="0.35em" font-size="13" font-weight="500" fill="var(--_text)">Kulturni proizvod (glazba, film, anime)</text>
<text x="762.975" y="136" text-anchor="middle" dy="0.35em" font-size="13" font-weight="500" fill="var(--_text)">Digitalne platforme Internet, društvene mreže</text>
<text x="1053.05" y="136" text-anchor="middle" dy="0.35em" font-size="13" font-weight="500" fill="var(--_text)">Globalna publika</text>
<text x="1239.45" y="136" text-anchor="middle" dy="0.35em" font-size="13" font-weight="500" fill="var(--_text)">Kulturni utjecaj</text>
<text x="1490.2" y="106" text-anchor="middle" dy="0.35em" font-size="13" font-weight="500" fill="var(--_text)">Hibridizacija i lokalna prilagodba</text>
<text x="1490.2" y="166" text-anchor="middle" dy="0.35em" font-size="13" font-weight="500" fill="var(--_text)">Meka moć (Soft Power)</text>
</svg>